<?xml version="1.0" encoding="UTF-8"?>
<svg width="149px" height="216px" viewBox="0 0 149 216" version="1.1" xmlns="http://www.w3.org/2000/svg" xmlns:xlink="http://www.w3.org/1999/xlink">
    <title>certificateur-examination</title>
    <defs>
        <linearGradient x1="93.7471102%" y1="88.7203093%" x2="9.64917369%" y2="10.9646281%" id="linearGradient-1">
            <stop stop-color="#FFFFFF" stop-opacity="0" offset="0%"></stop>
            <stop stop-color="#FFFFFF" offset="100%"></stop>
        </linearGradient>
        <linearGradient x1="107.27813%" y1="90.56326%" x2="-2.42497285%" y2="3.75408533%" id="linearGradient-2">
            <stop stop-color="#FFFFFF" stop-opacity="0" offset="0%"></stop>
            <stop stop-color="#FFFFFF" offset="100%"></stop>
        </linearGradient>
    </defs>
    <g id="WebDesign-1.2" stroke="none" stroke-width="1" fill="none" fill-rule="evenodd">
        <g id="1.2/Candidature/transmise" transform="translate(-1308.000000, -281.000000)" fill-rule="nonzero">
            <g id="Group-8" transform="translate(397.000000, 281.000000)">
                <g id="certificateur-examination" transform="translate(911.000000, 0.000000)">
                    <path d="M102.117637,81.1894531 C102.178327,81.4436453 87.6317233,96.7185439 87.6960967,97.0371094 C76.5941731,97.5207347 66.2036573,94.1637979 64.7890946,94.2859422 C61.5308137,94.5681944 52.9411006,79.595618 52.9411006,79.595618 C52.9411006,79.595618 63.8565066,57.3472047 53.2150999,35.9769095 C52.6043786,34.7505151 54.1955553,30.4820681 54.4728558,29.2474206 C55.5606,24.3732041 56.9586567,19.5220959 58.9591817,14.9383847 C61.4994524,9.11177297 65.5087554,4.47524258 70.4853091,1.98944166 C73.1774347,6.34537036 78.4117569,7.34068108 89.3816327,10.3612758 C108.875198,15.7273706 98.7236251,67.3442353 102.117637,81.1894531 Z" id="Path" fill="#847BE5"></path>
                    <path d="M142.680824,153.799911 C141.056898,154.313433 139.286958,154.050408 137.882535,153.086853 L100.549305,127.486075 L101.209544,120.853971 L47.4809217,127.510834 L52.7941974,138.223216 L50.4371431,139.378635 L46.2990934,136.902738 L34.7449059,143.50513 L34.4709066,147.223928 L5.61514854,161.392687 C3.86473228,161.39775 2.21267001,160.583895 1.14996435,159.192982 C0.0872586888,157.802069 -0.263777284,155.994185 0.201186388,154.306645 L16.832614,93.3995709 C18.8325193,86.0681789 24.2686576,80.1648724 31.4106975,77.5686834 L64.4061558,65.5836898 L82.98694,63.0846841 L116.474277,76.0897474 C125.142874,79.4558796 131.762334,86.6489565 134.398123,95.5668064 L148.418304,143.00665 C149.765645,147.566679 147.214394,152.366055 142.680824,153.799911 Z" id="Path" fill="#FFFFFF"></path>
                    <path d="M55.133095,31.7975363 C58.0631952,31.7839701 60.4498161,34.1477421 60.4644452,37.0778377 C60.4789404,40.0079333 58.1159319,42.3953103 55.1858411,42.4108856 C52.2557503,42.4263092 49.8676175,40.0640646 49.8511061,37.1339789 C49.8437198,35.7258334 50.3960707,34.3724236 51.386673,33.3716057 C52.3772753,32.3707878 53.7249471,31.8045809 55.133095,31.7975363 Z" id="Path" fill="#765B46"></path>
                    <path d="M89.3816327,42.2458816 C89.4094176,47.8298553 87.2900495,52.9070955 83.87001,56.5417127 C83.3735455,57.0693554 82.8472417,57.5681041 82.2936887,58.0355041 C79.2450338,60.6104373 75.4338025,62.1619997 71.3056564,62.1801562 L71.2066205,62.1801562 C61.2551638,62.1801562 53.0814015,53.3346004 53.0269317,42.4670617 L52.9342262,24.4507822 C52.8800285,13.548581 61.0125259,4.57923026 71.0085487,4.51784801 L71.0085487,4.51784801 C80.7883431,4.45873659 88.8713226,12.9461126 89.2691168,23.5247966 C89.280671,23.7591815 89.2872733,23.9935665 89.2872733,24.2312526 L89.3384419,34.3609739 L89.3816327,42.2458816 Z" id="Path" fill="#A08C77"></path>
                    <rect id="Rectangle" fill="#847BE5" x="52.93945" y="142.602253" width="43.2308179" height="68.9421863"></rect>
                    <path d="M52.8189563,38.0863741 C52.9250526,39.1665565 52.9001126,40.2556064 52.7446794,41.3297996 C52.6569668,40.2490052 52.6818596,39.1620201 52.8189563,38.0863741 Z" id="Path" fill="#765B46"></path>
                    <path d="M78.0500007,211.54609 C73.7782525,208.154111 74.5556843,144.356839 74.5556843,144.356839 L69.392613,211.54609 L78.0500007,211.54609 Z" id="Path" fill="#4438C6"></path>
                    <path d="M89.272418,23.5264472 C89.2839721,23.7608321 89.2905745,23.9952171 89.2905745,24.2329032 L89.3417431,34.3626245 L89.3813574,42.2475322 C89.4094176,47.8315059 87.2900495,52.9087461 83.87001,56.5433633 C84.3420811,55.0924875 84.7101645,53.2421669 84.9098869,52.5076507 C86.8575928,45.4100784 85.340693,39.5075391 81.1745831,33.5505302 C78.9875405,30.4143936 77.1850872,27.0207636 75.5625492,23.5660616 C73.5702771,19.3025664 71.7661733,14.8740113 70.4011285,10.3612758" id="Path" fill="#765B46"></path>
                    <path d="M115.993952,211.998354 L89.8286696,214.281131 C85.6536529,214.64614 81.9485564,211.616894 81.4766426,207.452606 L74.4137328,145.144174 L72.2861117,210.540876 C72.2112261,212.890651 70.3982179,214.816883 68.0572791,215.033804 L38.7509077,215.773272 C38.3393752,215.810449 37.9259963,215.823126 37.5129591,215.811236 C34.8181179,215.715835 32.2846889,214.502659 30.520904,212.462969 C28.7571191,210.42328 27.9222702,207.741287 28.2167899,205.06089 L30.6662777,182.701886 L33.5416198,156.467278 L34.2893408,149.665163 L34.7432553,143.50348 L36.3575403,121.654511 L36.8345632,115.19407 L40.5352044,114.854047 L110.013835,108.416713 L110.19375,109.281627 L111.844349,117.354703 L116.086386,138.145638 L117.327636,144.211586 L127.916223,196.018913 C128.678401,199.749468 127.812174,203.627979 125.535226,206.679777 C123.258278,209.731574 119.787084,211.666517 115.993952,211.998354 L115.993952,211.998354 Z" id="Path" fill="#FFFFFF"></path>
                    <path d="M119.144944,122.874303 L113.485043,104.59888 C111.609964,106.726501 112.597021,110.720949 113.608838,114.00729 C113.701076,114.319214 113.583912,114.655207 113.317716,114.842142 C113.05152,115.029077 112.695706,115.025233 112.433612,114.832589 C109.193488,112.409511 103.73661,109.304735 100.978461,109.742144 C103.949537,111.932488 106.978385,114.033699 109.967618,116.179477 C113.06249,118.427592 116.358735,120.221792 119.144944,122.874303 Z" id="Path" fill="#DFDCFF" opacity="0.96"></path>
                    <path d="M48.0949442,60.6616059 L93.9205025,59.2239348 C96.0790548,59.1560175 98.1747961,59.9559599 99.7391018,61.4448886 C101.303407,62.9338172 102.20579,64.9875322 102.244469,67.1468063 L103.385033,133.525614 C103.458701,137.81844 100.159455,141.417947 95.8764614,141.717533 L58.4640022,144.33208 C54.2373784,144.627615 50.5016817,141.60475 49.9089517,137.409471 L40.3552892,69.8554379 C40.0358311,67.5848888 40.6969416,65.2856081 42.1736071,63.531497 C43.6502726,61.7773859 45.8031732,60.7339408 48.0949442,60.6616059 Z" id="Path" fill="#B0B0B0"></path>
                    <path d="M102.863444,92.7178738 C96.062979,76.1920845 93.8478762,64.6577042 93.5986359,55.9095336 C93.2437573,43.3055656 96.9609045,36.44733 96.9443985,28.715928 C96.9420827,26.5865719 96.6386702,24.468241 96.0431718,22.4238476 C96.0002563,22.2686914 95.9523889,22.1135351 95.9045216,21.9550777 C95.709751,16.2621644 92.415157,10.7970337 88.3117698,6.97754947 C83.6900948,2.67443992 77.9427118,1.04695008 71.9378355,1.34240716 C76.7806907,-0.595395145 82.432339,-0.555780788 88.4735284,2.25518798 C95.4241975,5.49366168 98.7897673,13.4792558 101.202942,20.330889 C104.248296,28.9849755 105.39216,38.2415303 105.208944,47.3907962 C104.614728,76.7714445 109.520306,66.9157225 114.815425,82.7135981 L115.097678,83.8904746 C115.782676,88.5748723 110.372015,91.2372872 102.863444,92.7178738 Z" id="Path" fill="#4438C6"></path>
                    <path d="M37.176237,169.597787 C37.176237,169.597787 66.7070897,176.556709 68.4171095,170.810977" id="Path" fill="#DFDCFF"></path>
                    <path d="M117.334238,144.209936 C110.837484,139.609719 103.386683,129.430479 103.386683,129.430479 L116.09629,138.143987 L117.334238,144.209936 Z" id="Path" fill="#C3D1FF"></path>
                    <path d="M36.3789981,121.349151 L34.957833,132.358641 L25.8795428,134.628213 L35.1393988,109.260169 L35.1393988,109.260169 C36.2609597,113.18545 36.6806018,117.277939 36.3789981,121.349151 L36.3789981,121.349151 Z" id="Path" fill="#DFDCFF"></path>
                    <path d="M55.0934807,145.058343 L33.5416198,156.467278 L34.2893408,149.665163 L34.469256,147.222278 L49.1001586,140.038874 L49.6068922,139.791284 L50.4420949,139.380285 L51.5793571,140.061982 C51.1944818,140.778334 50.7656056,141.470159 50.2951917,142.133483 C51.4936289,143.650598 53.1958766,144.688225 55.0934807,145.058343 L55.0934807,145.058343 Z" id="Path" fill="#4052F2" opacity="0.11"></path>
                    <path d="M102.115723,134.380623 C102.13159,135.185075 102.024156,135.987212 101.797157,136.759135 C100.856823,140.014126 97.9837513,142.335394 94.6038502,142.570892 L57.1963428,145.185439 C54.7240899,145.359544 52.3094078,144.385391 50.6500703,142.544482 C50.5246248,142.410784 50.4090829,142.272134 50.2951917,142.128531 L49.6068922,141.258666 L49.3427965,140.626487 C49.2206522,140.335982 49.1348211,140.131308 49.1348211,140.131308 C49.1232669,140.099946 49.1100621,140.066934 49.1001586,140.037224 C48.8785051,139.464322 48.7234318,138.867843 48.6379911,138.259529 L39.6636886,74.8204374 L39.0810274,70.7087972 C38.4574251,66.3303122 41.4764384,62.2664257 45.8484801,61.5991457 C46.1699644,61.5506659 46.4940601,61.5214532 46.8190318,61.511664 L52.5961256,61.3300982 L92.6478913,60.0723423 C94.8066923,60.0035207 96.9029495,60.8031619 98.467456,62.2922817 C100.031962,63.7814015 100.93407,65.8356466 100.971858,67.9952138 L101.698121,110.270335 L101.820266,117.391016 L101.901145,122.053956 L102.115723,134.380623 Z" id="Path" fill="#D6D6D6"></path>
                    <path d="M95.9045216,21.9435235 C94.793669,18.330364 92.7452766,15.8099005 89.3896104,14.8855655 C78.4197347,11.8748744 73.1708324,6.34371976 70.4836585,1.98779106 C70.9606813,1.75010492 71.4476078,1.52892476 71.9411367,1.32755178 C77.946013,1.0320947 83.6950466,2.65958454 88.315071,6.96269409 C92.415157,10.7887808 95.709751,16.2539115 95.9045216,21.9435235 Z" id="Path" fill="#4438C6"></path>
                    <path d="M95.5314864,25.8405859 C95.3020532,26.8210412 94.3199473,32.5403641 92.9152882,32.5601712 C90.8834018,32.5700748 89.9970306,34.8445992 89.6140918,37.4624479 C89.0152106,35.269552 88.0946291,33.1775236 86.8823517,31.254548 C84.4361652,27.4317626 80.3608382,26.4826686 76.2475474,25.7068874 C73.1609288,25.1291781 70.140334,23.7525792 68.1348572,21.2684288 C67.6396777,20.6494545 65.3123342,17.8434375 65.5978877,17.0016324 C65.4757435,17.3317521 61.7272349,27.5208949 56.8662232,30.6669351 C54.0602062,32.4825931 53.1144134,35.6682477 52.8156551,38.0946271 C52.2379458,31.8735224 47.8638605,26.1707055 47.5089819,20.0882511 C47.3691025,17.997214 47.7770208,15.9058502 48.6924608,14.0206521 C51.9556935,7.17892246 60.2466483,3.37099237 67.1890644,1.94322491 C68.7549597,1.6179436 70.3437681,1.41485867 71.9411367,1.33580477 C71.4459572,1.53057536 70.9606813,1.75175552 70.4836585,1.99604406 C73.1757842,6.35197275 78.4197347,11.876525 89.3896104,14.8971197 C92.7452766,15.8214547 94.793669,18.3419182 95.9045216,21.9550777 C95.9520805,23.2610308 95.8266471,24.5675362 95.5314864,25.8405859 Z" id="Path" fill="#847BE5"></path>
                    <path d="M90.5516316,31.5961633 C93.4817317,31.5825971 95.8683527,33.9463691 95.8829817,36.8764647 C95.8974769,39.8065603 93.5344684,42.1939373 90.6043776,42.2095126 C87.6742868,42.2249363 85.2861541,39.8626916 85.2696337,36.9326059 C85.2618173,35.5243284 85.8140262,34.1706646 86.804723,33.1697512 C87.7954199,32.1688378 89.1433472,31.6027703 90.5516316,31.5961633 Z" id="Path" fill="#765B46"></path>
                    <polygon id="Path" fill="#FFFFFF" points="50.4420949 139.380285 34.469256 147.222278 34.7449059 143.50348 46.3040452 136.897786"></polygon>
                    <path d="M75.0162012,116.595428 C74.7860127,116.157299 74.3857981,115.833097 73.9094317,115.698865 C73.4330653,115.564634 72.9224618,115.632184 72.4973883,115.88567 L63.6749408,121.129621 L72.7928454,114.424891 C73.0778871,114.216572 73.1713037,113.833146 73.0140255,113.517062 C72.8166566,113.115069 72.4540768,112.818901 72.0207777,112.705742 C71.5874786,112.592584 71.1263834,112.673644 70.7576578,112.927798 L56.82991,121.852583 L57.064295,118.39623 C57.2076819,116.288079 56.6563119,114.191018 55.4945761,112.426017 C55.4743454,112.397504 55.4470404,112.37475 55.4153473,112.359993 C55.0357097,112.194933 54.6016024,112.475535 54.4827593,112.874979 L51.8104408,121.694126 L47.1788622,129.782057 L48.1378598,140.628138 L49.5557237,139.776429 L65.4014665,130.268983 C65.9981712,129.982985 66.5507096,129.612773 67.0421612,129.169685 L74.4120822,122.545834 C74.9193562,121.988352 75.2661567,121.303877 75.4156459,120.565116 C75.7292596,119.219879 75.5856575,117.661714 75.0162012,116.595428 Z" id="Path" fill="#765B46"></path>
                    <path d="M102.115723,134.380623 C102.13159,135.185075 102.024156,135.987212 101.797157,136.759135 L39.6636886,74.8204374 L39.0810274,70.7087972 C38.6467323,67.6541742 39.9921608,64.6192721 42.5472836,62.8899135 L101.897844,122.058908 L102.115723,134.380623 Z" id="Path" fill="url(#linearGradient-1)"></path>
                    <path d="M101.821916,117.395968 L45.8550825,61.6057481 C46.1765668,61.5572683 46.5006625,61.5280556 46.8256342,61.5182664 L52.602728,61.3367005 L101.699772,110.281889 L101.821916,117.395968 Z" id="Path" fill="url(#linearGradient-2)"></path>
                </g>
            </g>
        </g>
    </g>
</svg>