<?xml version="1.0" encoding="UTF-8"?>
<svg width="181px" height="199px" viewBox="0 0 181 199" version="1.1" xmlns="http://www.w3.org/2000/svg" xmlns:xlink="http://www.w3.org/1999/xlink">
    <!-- Generator: Sketch 63.1 (92452) - https://sketch.com -->
    <title>man</title>
    <desc>Created with Sketch.</desc>
    <defs>
        <linearGradient x1="0%" y1="50%" x2="100%" y2="50%" id="linearGradient-1">
            <stop stop-color="#FFFFFF" stop-opacity="0" offset="0%"></stop>
            <stop stop-color="#FFFFFF" offset="100%"></stop>
        </linearGradient>
    </defs>
    <g id="WebDesign-1.2" stroke="none" stroke-width="1" fill="none" fill-rule="evenodd">
        <g id="1.2/Candidature/next-recevabilite" transform="translate(-1271.000000, -399.000000)">
            <g id="Candidature" transform="translate(397.000000, 309.000000)">
                <g id="candidature-informations" transform="translate(35.000000, 34.000000)">
                    <g id="next-step" transform="translate(1.000000, 56.000000)">
                        <g id="man" transform="translate(838.000000, 0.000000)">
                            <g id="Group" opacity="0.75" transform="translate(137.950897, 91.770385)" fill="#4055EC" fill-rule="nonzero">
                                <path d="M17.9002038,29.0789744 C17.002691,28.4460731 16.0541128,27.5872462 15.9117487,26.5721282 C15.7693846,25.5570103 16.5508397,24.7987667 17.4777538,24.6393808 C18.4046679,24.4799949 19.44145,24.7740077 20.4395462,25.0633782 C22.4883513,25.6606885 35.9758026,29.1021859 31.2004154,32.2109846 C28.1380397,34.1994397 21.1219654,31.3475154 17.9002038,29.0789744 Z" id="Path"></path>
                                <path d="M2.18289744,17.3076295 C1.27919487,16.81245 0.305857692,16.113009 0.0660051282,15.1814526 C-0.173847436,14.2498962 0.476075641,13.4607038 1.32252308,13.2146615 C2.16897051,12.9686192 3.16706667,13.1326474 4.12647692,13.2982231 C6.09945769,13.638659 19.0329269,15.4274949 14.9090103,18.8272115 C12.2721795,21.0075487 5.42632308,19.0871808 2.18289744,17.3076295 Z" id="Path"></path>
                                <path d="M15.6161885,6.21870385 C13.7456392,3.21668475 10.7506775,1.088891 7.30026795,0.31059359 C6.1257641,0.0521717949 4.85996154,-0.0360320513 3.74890256,0.428198718 C2.63784359,0.892429487 1.7372359,2.02515256 1.86876795,3.22132051 C2.04517564,4.86005513 3.85103333,5.7467359 5.43560769,6.19858718 C7.78496089,6.86846781 10.2045273,7.26160192 12.6451115,7.36999615 C13.3770487,7.40249231 14.1538615,7.39785 14.7790256,7.01718077 C15.4041897,6.63651154 15.7693846,5.74054615 15.3469346,5.14478333" id="Path"></path>
                            </g>
                            <path d="M56.8865076,136.609994 C56.9266192,136.722956 46.9827962,140.418233 34.663659,144.864017 C22.3445218,149.3098 12.3326115,152.822479 12.2922565,152.709517 C12.2521449,152.596554 22.1959679,148.901277 34.5166526,144.453946 C46.8373372,140.006615 56.8446051,136.497031 56.8865076,136.609994 Z" id="Path" stroke="#A9B6EA" stroke-width="1.5" stroke-linecap="round" stroke-linejoin="round"></path>
                            <path d="M58.9415119,142.304558 C58.9831615,142.419068 49.037791,146.114345 36.7202013,150.558581 C24.4026115,155.002817 14.3891538,158.518591 14.3487989,158.404081 C14.3086872,158.289571 24.2525103,154.597388 36.5731949,150.150058 C48.8938795,145.702727 58.9011474,142.193142 58.9415119,142.304558 Z" id="Path" stroke="#A9B6EA" stroke-width="1.5" stroke-linecap="round" stroke-linejoin="round"></path>
                            <path d="M60.9980447,148.000669 C61.0381564,148.113632 51.0943333,151.808909 38.7767436,156.254692 C26.4591538,160.700476 16.4456962,164.213155 16.4053412,164.100192 C16.3652295,163.987229 26.3090526,160.291953 38.6297372,155.846169 C50.9504218,151.400386 60.9576897,147.887706 60.9980447,148.000669 Z" id="Path" stroke="#A9B6EA" stroke-width="1.5" stroke-linecap="round" stroke-linejoin="round"></path>
                            <path d="M63.054587,153.696781 C63.0946987,153.809744 53.1508756,157.505021 40.8332859,161.950804 C28.5156962,166.396587 18.5022385,169.909267 18.4618835,169.796304 C18.4217718,169.683341 28.3655949,165.988064 40.6847321,161.540733 C53.0038692,157.093403 63.0142321,153.583818 63.054587,153.696781 Z" id="Path" stroke="#A9B6EA" stroke-width="1.5" stroke-linecap="round" stroke-linejoin="round"></path>
                            <path d="M65.1142242,159.391345 C65.1543359,159.504308 55.2105128,163.201132 42.8929231,167.645368 C30.5753333,172.089604 20.5618756,175.603831 20.5199637,175.490868 C20.4783141,175.377905 30.4236846,171.684176 42.7443692,167.236845 C55.0650538,162.789514 65.0692269,159.278382 65.1142242,159.391345 Z" id="Path" stroke="#A9B6EA" stroke-width="1.5" stroke-linecap="round" stroke-linejoin="round"></path>
                            <path d="M68.0806588,165.619774 C68.1207705,165.73119 58.1769474,169.428014 45.8578103,173.873797 C33.5386731,178.319581 23.5267628,181.830713 23.4864078,181.719297 C23.4462962,181.607882 33.3901192,177.911058 45.7108038,173.463727 C58.0314885,169.016396 68.0387564,165.506812 68.0806588,165.619774 Z" id="Path" stroke="#A9B6EA" stroke-width="1.5" stroke-linecap="round" stroke-linejoin="round"></path>
                            <path d="M101.709276,125.194157 L133.779822,125.194157 C133.981958,125.194157 134.145822,125.358021 134.145822,125.560157 L134.145822,126.555095 C134.145822,126.757231 133.981958,126.921095 133.779822,126.921095 L101.709276,126.921095 C101.507139,126.921095 101.343276,126.757231 101.343276,126.555095 L101.343276,125.560157 C101.343276,125.358021 101.507139,125.194157 101.709276,125.194157 Z" id="Rectangle" fill="#0600A0" fill-rule="nonzero" transform="translate(117.744549, 126.057626) rotate(-74.890000) translate(-117.744549, -126.057626) "></path>
                            <polygon id="Rectangle" fill="#C3D1FF" fill-rule="nonzero" transform="translate(146.688098, 139.857666) rotate(15.110000) translate(-146.688098, -139.857666) " points="125.932341 138.468842 167.443856 138.468842 167.443856 141.246489 125.932341 141.246489"></polygon>
                            <path d="M34.372741,182.389337 C34.6497321,181.479445 34.8369718,180.386955 34.3990474,179.616332 C33.9611231,178.845709 33.0171872,178.742031 32.2976295,179.127342 C31.5780718,179.512654 31.0240897,180.26316 30.4964141,180.99355 C29.413209,182.493015 22.0133705,192.026768 26.9373115,191.613603 C30.0925333,191.347444 33.3761923,185.660617 34.372741,182.389337 Z" id="Path" fill="#4055EC" fill-rule="nonzero"></path>
                            <path d="M38.8664949,165.971042 C39.2208577,165.150901 39.5133231,164.152805 39.1759821,163.388372 C38.838641,162.623938 37.9798141,162.428962 37.269541,162.710595 C36.5592679,162.992228 35.9635051,163.639056 35.3940487,164.258031 C34.2257346,165.540855 26.3260744,173.649419 30.95755,173.780951 C33.9348167,173.869155 37.5929551,168.914265 38.8664949,165.971042 Z" id="Path" fill="#4055EC" fill-rule="nonzero"></path>
                            <path d="M24.8482731,145.546436 C25.0602718,143.892227 24.7384051,141.817115 23.1754949,141.233732 C22.2021577,140.871632 21.0756244,141.27706 20.3080962,141.976501 C19.5405679,142.675942 19.0577679,143.626068 18.5904423,144.554529 C16.8774308,147.958888 15.1412077,151.434429 14.5299705,155.197794 C13.7655372,159.917473 19.526641,155.258144 20.7274513,154.007815 C22.9340949,151.708326 24.4428449,148.717132 24.8482731,145.546436 Z" id="Path" fill="#4055EC" fill-rule="nonzero"></path>
                            <path d="M22.2207269,175.2603 C21.6373436,176.315651 21.0539603,177.389572 20.7614949,178.562528 C20.4690295,179.735485 20.4953359,181.038426 21.0910987,182.106156 C21.1603409,182.253412 21.2670682,182.379884 21.4005859,182.472899 C21.6806718,182.643117 22.0381295,182.525512 22.3290474,182.383147 C24.3082179,181.42219 25.7225744,179.518844 26.4127308,177.431353 C27.1028872,175.343862 27.1291936,173.064488 26.8429179,170.865582 C26.335359,166.947474 22.6973372,174.390641 22.2207269,175.2603 Z" id="Path" fill="#4055EC" fill-rule="nonzero"></path>
                            <path d="M23.7697103,165.531571 C23.4514307,162.48123 24.3682114,159.430495 26.3152423,157.060906 C26.9821872,156.257787 27.8023282,155.524303 28.8081615,155.250406 C29.8139949,154.97651 31.0333744,155.275165 31.5827141,156.163394 C32.3347679,157.378131 31.5687872,158.948778 30.7254346,160.098523 C29.4752094,161.809507 28.0282327,163.36763 26.4142782,164.740831 C25.9314782,165.152449 25.3976128,165.562519 24.766259,165.633701 C24.1349051,165.704883 23.4107051,165.288623 23.3735667,164.655722" id="Path" fill="#4055EC" fill-rule="nonzero"></path>
                            <path d="M115.715256,72.8293282 C124.920953,76.1346513 140.687777,77.8708744 148.101542,82.0071705 C155.515308,86.1434667 150.379368,80.7692218 153.517568,88.7261372 C156.655768,96.6830526 153.070359,116.24419 152.849076,129.799728 C152.627792,143.355267 146.979651,167.311122 146.877521,182.780838 C146.860499,185.348035 146.891447,187.905946 146.978104,190.002722 C116.549324,186.705136 86.1313769,185.431596 55.5942769,182.712751 C54.8035372,167.455033 49.5902256,143.859731 49.4045333,130.624512 C49.2080177,117.02874 45.9785103,97.4118949 48.977441,89.4302205 C51.9763718,81.4485462 47.2319333,86.8150538 54.107191,82.6803051 C60.9824487,78.5455564 75.5159667,76.6453051 83.9727038,73.2409462 C89.7322603,74.1291744 94.1300731,74.5175808 99.3959974,75.4352103 C104.890942,74.2483269 109.64776,73.8305192 115.715256,72.8293282 Z" id="Path" fill="#257091"></path>
                            <path d="M100.859872,84.4722359 C98.9147449,84.1426321 102.155076,84.7693436 100.240897,85.2088154 C97.0392526,85.9453949 94.1145987,86.932659 92.4464628,90.021341 C89.7152385,95.0783615 93.3625449,99.6154436 95.0523449,104.280963 C96.2313415,107.541546 97.2421166,110.860525 98.0806769,114.224786 C99.6842583,120.699944 100.711126,127.304418 101.149242,133.960783 C101.901296,145.021855 101.562408,156.502282 97.4911038,166.953664 C95.134359,173.005686 91.5876359,169.096863 87.7793962,166.752497 C86.2319603,165.799277 84.1444692,164.895574 82.8771192,163.557042 C82.1436346,162.783324 79.1632731,86.6494782 79.1632731,86.6494782 L81.6314333,73.7810013 C81.6314333,73.7810013 87.3569462,80.0713282 94.1254308,82.5487731 C100.41421,84.8498103 100.859872,84.4722359 100.859872,84.4722359 Z" id="Path" fill="#1B556E" fill-rule="nonzero" opacity="0.54"></path>
                            <path d="M115.362441,72.4037833 C117.146635,72.8680141 118.921544,73.3121282 120.710379,73.7810013 C120.469645,74.541279 120.036237,75.2263091 119.452314,75.7694564 C106.412072,87.5794872 93.5822808,88.3036872 80.4337179,76.4565179 C79.8147436,75.8978936 79.4495487,75.2433282 79.1617256,74.4788949 C80.7973654,73.9821679 82.4314577,73.5040103 84.0717397,73.0320423 C89.1916893,73.7614004 94.3013226,74.5593615 99.4006397,75.4259256 C104.69906,74.29475 110.011408,73.2548731 115.362441,72.4037833 Z" id="Path" fill="#FFFFFF"></path>
                            <path d="M154.091667,190.759418 C140.256042,188.699781 126.590636,189.14699 112.674545,186.06914 C110.85476,173.92641 106.548246,142.895678 106.278992,134.315146 C105.687872,115.448808 110.404456,104.29489 112.354226,92.2016782 C112.759654,89.684 113.776319,87.4185538 114.563964,84.9921744 C115.328397,82.6431667 115.908686,80.1595321 116.702521,77.819809 C117.25555,76.1451218 117.712275,74.4401542 118.070454,72.7132705 C127.63825,76.0588269 137.645518,78.3474846 147.06476,81.1467962 C149.738729,81.9421782 150.554228,82.2934462 152.538041,83.9492026 C153.11214,84.4289077 153.355087,84.0312167 153.77599,85.1964359 C154.586846,87.4092692 154.783371,83.8934949 155.208915,87.9895577 C156.401988,99.5024808 156.544353,113.52225 155.013938,125.996131 C154.62089,129.20706 154.136542,134.380138 153.83015,138.50096 C152.949659,150.377531 152.353896,163.117571 153.056432,175.165906 C153.113687,176.148528 153.144636,176.580263 153.211176,177.671205 C153.396868,180.506108 153.605772,183.484922 153.802296,186.528728 C153.893595,187.69859 153.997273,189.26769 154.091667,190.759418 Z" id="Path" fill="#4CB2DE"></path>
                            <path d="M116.926899,72.7937372 C117.805842,72.7457667 117.172941,71.8884872 118.502188,72.207259 C119.831436,72.5260308 122.7499,74.0100218 124.50624,74.8177833 C125.993326,78.4635423 123.539092,83.0021718 122.356851,86.3956987 C120.609796,91.4124859 118.610509,96.2575077 117.405056,101.464629 C117.259597,102.092888 117.118781,102.735074 116.796914,103.292151 C115.705972,105.186213 109.822621,103.26275 109.407908,105.898033 C110.182421,100.795193 111.265026,95.7438985 112.649786,90.7718474 C114.160083,85.2722603 116.334231,78.796241 118.002367,73.112509 C117.6805,72.9546705 117.341612,72.9376487 116.926899,72.7937372 Z" id="Path" fill="#368DB3"></path>
                            <path d="M53.6290333,82.2114321 C45.1537269,91.7126885 53.2561013,77.0197846 42.5370128,93.6825744 C36.4757064,103.103364 21.9723269,144.483347 17.3454936,157.718567 C12.7186603,170.953786 17.8778115,170.42611 21.1227846,178.943197 C21.4756,179.871659 22.0288449,180.010928 22.4590321,181.281373 C30.0832487,181.637283 38.0958718,182.335177 45.416791,182.626095 C43.4933282,178.873563 35.5132013,172.420755 34.8803,169.401708 C33.4055936,162.40575 30.3617872,170.430753 34.6837756,161.545376 C39.0057641,152.659999 50.3128782,137.06494 56.6852192,127.176824 C60.1623077,114.620929 63.2386103,91.9123077 53.6290333,82.2114321 Z" id="Path" fill="#4CB2DE"></path>
                            <path d="M81.5788205,73.414259 C83.9835359,83.3518923 85.3545641,80.6407846 87.2625526,92.8299372 C89.170541,105.01909 94.953309,115.668544 95.4252769,134.316694 C95.6357282,142.607855 92.4155141,172.847847 90.7674949,184.489208 C76.9210385,185.450165 63.0931513,182.85821 49.2436,182.776196 C49.3983436,180.659304 49.4710731,177.850708 49.5917731,175.718341 C50.4335782,160.892358 49.3550154,141.113032 47.7023538,127.395013 C46.0496923,113.676994 46.3096615,99.5519987 47.6621205,89.3977244 C47.8323385,88.1272795 47.9824397,86.7902949 48.4219115,85.5771051 C48.8412667,84.4165282 49.9368513,83.9553923 50.9597064,83.4106949 C55.9238808,80.7924333 61.4544167,79.5591269 66.8023551,77.9946692 C71.4601372,76.6267359 76.2293346,75.4321154 80.7942705,73.7686218 C80.8577154,73.7438628 81.6035795,73.5179372 81.5788205,73.414259 Z" id="Path" fill="#4CB2DE"></path>
                            <path d="M82.6279821,73.44985 C81.8171256,73.4127115 82.3448013,72.5585269 81.1285167,72.8865833 C79.9122321,73.2146397 77.3125397,74.7342218 75.7326077,75.5388885 C74.4389513,79.8624244 80.4027692,96.105859 80.8933064,100.356665 C81.3838436,104.607472 87.0675756,103.324647 90.5694231,106.433446 C89.3949192,101.124194 88.3457577,96.8393436 86.9716346,91.3459462 C85.5975115,85.8525487 83.497641,79.3656974 81.6298859,73.7825487 C81.9331833,73.6185205 82.2473128,73.5999513 82.6279821,73.44985 Z" id="Path" fill="#368DB3"></path>
                            <path d="M115.715256,72.5028192 C109.152581,79.751009 97.9398603,81.4779474 89.5310936,77.07085 C87.5276375,76.0266473 85.7223983,74.6398548 84.1970821,72.9732397 C84.3518256,72.8370654 84.6829769,72.8757513 84.8454577,72.8339705 C85.3731333,72.700891 85.8249846,72.7519564 86.334091,72.6064974 C87.6571487,72.2242808 88.9492577,72.761241 90.2026808,71.7987359 C91.4561038,70.8362308 92.2839821,70.6752974 92.3350474,68.1576192 C92.358259,67.0744141 92.3536167,65.6585103 92.3350474,64.0894103 C92.3350474,63.9346667 92.3350474,63.7799231 92.3350474,63.6251795 C92.2762449,59.7240936 92.1323333,55.0616692 92.0688885,52.5238744 C91.9760423,48.8502615 91.815109,48.3813885 91.7176205,45.3453192 C94.6902449,45.9147756 97.6473949,46.3913859 100.587523,47.0598782 C103.499797,46.0989205 106.439926,45.3174654 109.383149,44.4292372 C109.438856,47.4173359 109.212931,48.1337987 109.325894,51.7145654 C109.392433,53.8670487 109.423382,57.8362218 109.480637,61.4092513 C109.516228,63.7752808 109.564199,65.9679974 109.635381,67.3498577 C109.686446,68.3108154 109.817978,69.4203269 110.522062,70.1429795 C111.055927,70.6923192 111.837382,70.939909 112.519801,71.2432064 C113.548846,71.7089846 114.601103,72.2753462 115.715256,72.5028192 Z" id="Path" fill="#FFCAE1"></path>
                            <path d="M77.2784962,37.9408385 C77.0989936,37.9269115 77.0185269,38.0151154 76.8622359,38.0259474 C76.8622359,38.0259474 76.8622359,38.0259474 76.8622359,38.0259474 L76.8529513,38.0166628 C74.0675667,37.034041 72.5851231,41.2291397 72.7352244,43.6787308 C72.9116321,46.5275603 75.2111218,49.1551064 78.4050295,48.9663192 C81.5989372,48.7775321 83.6817859,46.4331667 83.8009385,43.2779449 C83.8690256,41.4442333 82.85855,40.0964167 81.5912,38.9234603 C81.736659,40.8020474 81.5200179,42.3463885 79.5269205,42.9142974 C79.4650231,41.9750038 79.5269205,40.5931436 79.4309795,39.749791 C79.2870679,38.3818577 78.4220513,38.0244 77.2784962,37.9408385 Z" id="Path" fill="#FDB2D0"></path>
                            <path d="M117.702164,36.0251128 C117.881667,35.9941641 117.968323,36.0746308 118.126162,36.0730833 C118.126162,36.0730833 118.126162,36.0730833 118.126162,36.0730833 C118.126162,36.0730833 118.133899,36.0653462 118.133899,36.0653462 C120.919283,34.982141 122.69574,38.8878692 122.799418,41.4086423 C122.920118,44.3394859 120.920831,47.1821256 117.663478,47.3198474 C114.406126,47.4575692 112.109731,45.2261667 111.698113,42.0585654 C111.45826,40.2155692 112.329467,38.7486 113.496233,37.4363744 C113.524087,39.3397205 113.881545,40.8995359 115.942729,41.2910372 C115.913328,40.3362692 115.727636,38.9311974 115.730731,38.0692756 C115.738468,36.6688462 116.552419,36.2231846 117.702164,36.0251128 Z" id="Path" fill="#FDB2D0"></path>
                            <path d="M109.474447,61.4185359 C106.41927,63.7674037 102.674088,65.041908 98.8203513,65.0445903 C97.1338036,65.0545633 95.4517763,64.8686523 93.8082064,64.4901962 L93.8082064,64.4901962 C93.3114795,64.3756859 92.8209423,64.241059 92.3412372,64.0925051 C85.3158782,61.8905038 80.2619526,56.0458385 78.9729385,48.3396077 C78.8697761,47.6938111 78.7887936,47.0371825 78.729991,46.3697218 C78.3632487,41.8310923 78.0816154,33.5492154 77.9655577,29.3726859 C77.6344064,17.4264808 84.825341,10.0746128 96.1587615,9.87499359 C107.492182,9.67537436 115.192223,14.6024103 116.300187,28.3838744 C116.300187,28.4163705 116.974869,41.0527321 117.120328,45.1890282 C117.338517,51.4592385 114.403031,57.6613615 109.474447,61.4185359 Z" id="Path" fill="#FFCAE1"></path>
                            <path d="M119.893333,29.3463795 C117.572179,29.1575923 118.912259,29.2535333 114.144609,28.8728641 C109.376959,28.4921949 94.1455474,27.3254282 89.7090487,26.9323795 L88.7125,26.8426282 L88.2173205,26.8023949 C86.2056538,26.6306295 85.4443154,26.5362359 83.4991885,26.4232731 C82.8043897,28.2090141 81.4534782,31.3472141 80.8685474,32.7677603 L80.7014244,33.171641 C80.7803436,32.9874962 80.5358487,33.5755218 80.7014244,33.171641 C80.6735705,33.2397282 80.6023885,33.4083987 80.4507397,33.7704987 C79.7977218,35.3272192 78.1945782,39.2344949 77.2877808,41.2771103 C78.0029379,41.1117199 78.704825,40.893447 79.3876513,40.6240923 L78.971391,48.3318705 C80.2604051,56.044291 85.3158782,61.8827667 92.3396897,64.0847679 L92.3536167,67.3622372 L92.3536167,67.5479295 L92.4743167,67.5479295 C92.4418205,67.8574167 92.4124192,68.0864372 92.3969449,68.1823782 C92.1617346,69.6942231 91.4684833,71.1967833 90.0340103,71.8869397 C88.2451744,72.7457667 86.0756692,72.2629667 84.2032718,72.9159846 C84.9197346,73.8692051 85.8358167,74.6042372 86.7782051,75.3191526 C87.0350795,75.5141295 89.3299269,77.2488051 89.5357359,77.0662077 C90.9624123,75.795013 92.1893784,74.3160807 93.1753051,72.6792269 C95.0978535,69.5196126 98.2285926,67.2833704 101.840946,66.4894833 C104.951292,65.7884949 107.995099,64.6186333 109.503849,62.671959 L109.482185,61.4077038 C103.425521,66.2357038 96.9278372,65.3722346 93.9722346,64.603159 C93.9211692,64.5613782 93.8716513,64.51805 93.817491,64.4793641 L93.817491,64.4793641 C93.2995225,64.2447603 92.8064976,63.9585881 92.3458795,63.6251795 C87.7809436,60.3755641 84.8686692,52.3861526 83.2438615,46.3666269 C82.2766284,42.7552426 83.7644632,38.9338563 86.9190218,36.9272679 C87.1697064,36.7673662 87.4157487,36.6079803 87.6571487,36.4491103 C89.3717077,35.3210295 90.6715538,34.8072808 93.0344885,36.1736667 C97.1847115,38.5737397 102.452183,39.6801564 107.645378,39.2886551 C110.243523,39.0936782 113.134133,39.5455295 115.182938,41.1177244 C116.405413,42.0554705 116.758228,42.8199038 117.504092,43.9959551 C119.888691,39.3428154 121.963803,34.6772962 123.450888,29.6403923 C121.555279,29.4871962 122.214487,29.5336192 119.893333,29.3463795 Z" id="Path" fill="#FDB2D0" fill-rule="nonzero"></path>
                            <path d="" id="Path" fill="#FDB2D0" fill-rule="nonzero"></path>
                            <path d="M80.721541,28.8388205 C82.2225538,27.0499846 83.7184085,25.2565064 85.2091051,23.4583859 C86.8679564,22.9941551 88.5005013,22.5299244 90.1748269,22.0656936 C93.7169077,22.3906551 97.7263141,22.6428872 101.191023,22.9755859 C104.655732,23.3082846 112.682282,25.0754564 112.693114,28.7010987 C112.703946,32.326741 112.343394,33.7116962 114.678474,36.4382782 C114.749656,36.5218397 114.678474,36.6688462 114.678474,36.7338385 C114.758941,37.9563128 114.633599,39.0905833 115.240194,40.1939051 C115.581244,40.8483264 116.213157,41.3015802 116.942373,41.4148321 C116.996533,40.3501962 116.725732,39.7730026 116.846432,38.5954038 C116.967132,37.4178051 118.314949,36.6069487 119.552897,36.4847013 C126.19604,27.4910038 125.363519,14.1784128 116.555514,6.95343462 C111.226145,2.58192821 104.767147,0.777617949 98.0713923,0.236015385 C94.6886974,-0.0378807692 91.5195487,0.545502564 88.4076551,1.78345128 C86.9553173,2.38384797 85.6436973,3.27969132 84.5560872,4.41409231 C83.1633949,5.80678462 82.6991641,7.88963333 80.5126372,8.27494487 C79.7868897,8.40338205 79.031741,8.17436154 78.2874244,8.27494487 C76.5295372,8.52253462 74.9588897,9.31636923 73.8462833,10.7152513 C72.1208923,12.8816615 70.9819795,15.2693551 70.0488756,17.8659526 C68.8588974,21.1743705 67.2990821,24.0556962 67.8406846,27.82525 C68.4287103,31.9321449 72.5882179,35.6336115 75.4664487,38.5721923 C76.7183244,38.5474333 78.1295859,39.2267577 78.3694385,40.3641231 C78.609291,41.5014885 78.3880077,42.0972513 78.5442987,43.1170115 C79.7141603,42.9019179 80.4012218,41.5571962 80.4244333,40.5498154 C80.4476449,39.5424346 80.3315872,38.9683359 80.3362295,38.0290423 L80.721541,28.8388205 Z" id="Path" fill="#444444"></path>
                            <path d="M75.8022423,35.0486808 C72.1208923,25.6325333 73.8168821,17.2253141 84.7882026,14.9660577 C87.9975846,9.98486154 91.9621154,7.97319487 97.9414077,9.30708462 C103.9207,10.6409744 110.532894,12.6758526 115.764774,8.17900385 C116.945468,10.9783154 116.493617,13.4511179 114.978677,15.9626064 C121.255077,21.8629795 121.275194,28.1687808 116.160918,34.8243026 C113.918683,25.134259 92.5718051,35.4169705 88.3070718,25.9915385 C86.7224974,34.4529179 80.9288974,31.1383103 75.8022423,35.0486808 Z" id="Path" fill="#444444"></path>
                            <path d="M80.3083756,40.0592782 C80.2712372,40.9784551 80.2898064,40.5977859 80.2805218,40.7881205 C80.2155295,42.1328423 80.1257782,42.5073218 79.9880564,43.8984667 C79.8983051,44.7758628 79.9880564,47.6711154 78.7748667,48.1910538 C76.5836974,44.5948128 74.5132282,40.9769077 72.2756359,37.3497179 C70.209809,33.9979718 68.3250321,30.7406192 67.7989038,26.7544244 C67.7555756,26.4232731 67.7246269,26.0549833 67.8855603,25.7656128 C68.8527077,24.0355795 70.7436744,26.3180474 71.729391,26.8039423 C72.8358077,27.3501872 73.6729705,27.3269756 74.7329641,27.2991218 C77.1020885,26.884409 79.2607615,25.8971449 81.2461218,24.6174154 C81.7856611,24.2491256 82.323653,23.8736145 82.8600974,23.4908821 C84.2600836,22.4210705 85.597707,21.2720266 86.866409,20.0493846 L86.9546128,20.1174718 C86.9546128,20.0958077 86.9747295,20.0741436 86.9824667,20.0524795 C87.0344816,20.1292656 87.091336,20.2026596 87.1526846,20.2722154 C87.9683761,20.916016 88.8260026,21.5048265 89.7198808,22.0347449 L89.9334269,22.1353282 L89.9102154,22.1353282 C92.4542,23.5481372 94.783091,23.8189385 99.7132218,24.1469949 C102.848327,24.3574462 109.964985,22.9090462 114.72335,20.1236615 C115.389768,19.6806194 116.027074,19.195275 116.631338,18.6706192 C118.901427,16.6976385 119.984632,14.3935064 120.733591,11.5694359 C124.048199,17.2609051 124.871435,23.2293654 123.337926,29.5955167 C122.089145,34.7778795 119.778823,39.2654436 117.466954,43.9866705 C117.377203,44.1708154 117.265787,44.3441282 117.179131,44.5313679 C115.986058,44.3642449 115.740015,43.1649821 115.476951,42.1808128 C115.373273,41.7877641 115.295901,41.4937513 115.221624,41.1393885 C114.98728,39.9850879 114.832174,38.8161081 114.757394,37.6406359 C114.746562,37.4936295 114.741919,37.3497179 114.737277,37.204259 C109.839642,30.7158603 91.8507,34.6726538 88.2838603,25.9838013 C87.5271641,30.0659372 85.7862987,31.3998269 83.6121513,32.1425962 C81.7794912,32.752753 80.5161334,34.4339433 80.4399077,36.3640013 L80.3083756,40.0592782 Z" id="Path" fill="#2D2D2F"></path>
                            <path d="M153.222008,177.624782 C141.784909,155.663572 139.561244,128.762946 142.580291,104.500699 C142.685517,103.646514 143.044522,101.379521 143.179149,100.356665 C144.144749,111.440949 145.726228,123.190629 150.473762,133.385137 C151.322947,135.223836 152.460757,136.914878 153.844077,138.394187 C152.949659,150.569413 152.367823,162.998418 153.070359,175.172096 C153.124519,176.162455 153.163205,176.676204 153.222008,177.624782 Z" id="Path" fill="#368DB3" fill-rule="nonzero"></path>
                            <path d="M177.844808,173.982118 C174.881468,178.955577 169.270465,181.40981 164.335692,183.949153 C158.195467,187.110564 151.646718,189.419338 144.992744,191.237576 C144.324251,191.420173 140.599573,192.874763 140.413881,192.757158 C135.643136,189.662286 133.510769,188.230908 129.736573,185.366604 L128.034394,184.06521 C128.41661,184.359223 134.792046,179.85309 135.522436,179.396596 C138.245923,177.694417 140.960126,175.979858 143.652664,174.226613 C148.650882,170.976997 153.472692,167.478245 158.325451,164.013536 C158.964542,163.549305 159.625297,163.072695 159.987397,162.374801 C160.065259,162.215089 160.120466,162.045299 160.151426,161.870337 C160.569233,159.457885 157.166422,154.55406 156.307595,152.687853 C154.792655,149.388719 153.175585,146.136009 151.423887,142.954481 C151.06024,142.298368 150.357704,140.998522 149.915137,140.32384 L149.915137,140.32384 C149.908398,140.315808 149.902681,140.306972 149.898115,140.297533 C149.894258,140.29126 149.889574,140.285534 149.884188,140.280512 C149.882037,140.274843 149.878893,140.269603 149.874904,140.265037 L149.645883,139.918412 C149.169273,139.184927 147.645049,136.549644 147.07714,135.642846 L147.030717,135.568569 C143.950514,130.642535 142.068968,125.06256 141.537319,119.277164 C141.126052,115.072892 141.105849,110.839524 141.476969,106.631518 C142.063447,99.7485231 143.968341,88.9040923 150.729088,84.2308359 C151.184035,83.9213487 152.162014,84.5155641 152.510187,84.8157667 C153.21505,85.4227825 153.886585,86.0674564 154.521854,86.7469667 C155.264623,87.5206846 155.933115,88.0947833 156.649578,88.9737269 C157.335552,89.811766 157.927627,90.7224512 158.415203,91.6894769 C159.226059,93.2214385 159.453532,93.631509 160.366519,95.6029423 C165.733083,107.233395 170.122319,119.290337 173.488776,131.648914 C175.183218,137.84949 176.619238,144.12589 177.736487,150.454903 C178.533417,154.959488 179.868854,159.430031 180.048356,164.022821 C180.178341,167.458128 179.611979,171.017231 177.844808,173.982118 Z" id="Path" fill="#4CB2DE" fill-rule="nonzero"></path>
                            <path d="M135.355313,182.626095 C133.204377,183.695373 131.331979,184.603718 129.727288,185.366604 L128.025109,184.06521 C128.407326,184.359223 134.782762,179.85309 135.513151,179.396596 C138.236638,177.694417 140.950841,175.979858 143.643379,174.226613 C148.641597,170.976997 153.463408,167.478245 158.316167,164.013536 C158.955258,163.549305 159.616013,163.072695 159.978113,162.374801 C160.055974,162.215089 160.111182,162.045299 160.142141,161.870337 C160.142141,161.870337 167.29439,166.746308 135.355313,182.626095 Z" id="Path" fill="#368DB3" fill-rule="nonzero"></path>
                            <path d="M27.975641,198.504335 L163.724455,198.504335 C166.134574,198.46828 168.117894,196.597122 168.294033,194.193178 L168.294033,194.193178 C168.374044,193.07232 167.981658,191.969077 167.211846,191.150472 C166.442034,190.331867 165.364955,189.872505 164.241299,189.883569 L28.4862949,189.883569 C26.0755448,189.915961 24.0908325,191.788394 23.9182641,194.193178 L23.9182641,194.193178 C23.8377281,195.315108 24.2305272,196.419522 25.0014184,197.238631 C25.7723096,198.05774 26.8508929,198.516739 27.975641,198.504335 L27.975641,198.504335 Z" id="Path" fill="#D8D8D8"></path>
                            <path d="M27.975641,198.504335 L163.724455,198.504335 C165.240177,198.486015 166.651005,197.727138 167.501746,196.472551 C166.779761,195.203769 165.427158,194.425608 163.967403,194.439221 L28.2139462,194.439221 C26.6980044,194.458154 25.2872319,195.217578 24.4366551,196.472551 C25.159851,197.7422 26.514554,198.519954 27.975641,198.504335 L27.975641,198.504335 Z" id="Path" fill="#929292"></path>
                            <path d="M25.1360962,189.882279 L133.711936,189.882279 C135.180916,189.896551 136.588719,189.294631 137.593122,188.222582 C138.597525,187.150533 139.106539,185.706538 138.996429,184.241618 L119.962968,113.912204 C119.766444,110.817332 117.067715,108.273073 113.966654,108.273073 L5.38307692,108.273073 C3.91435783,108.258343 2.50665961,108.859955 1.50244209,109.931827 C0.498224578,111.003698 -0.0104631086,112.447578 0.100130769,113.912204 L19.1335923,184.241618 C19.334759,187.344227 22.0319397,189.882279 25.1360962,189.882279 Z" id="Path" fill="#9E9E9E"></path>
                            <path d="M25.1345487,189.882279 L130.514933,189.882279 C131.983914,189.896551 133.391717,189.294631 134.39612,188.222582 C135.400522,187.150533 135.909537,185.706538 135.799427,184.241618 L116.765965,113.912204 C116.570988,110.817332 113.87226,108.273073 110.769651,108.273073 L5.38307692,108.273073 C3.91435783,108.258343 2.50665961,108.859955 1.50244209,109.931827 C0.498224578,111.003698 -0.0104631086,112.447578 0.100130769,113.912204 L19.1335923,184.241618 C19.334759,187.344227 22.0319397,189.882279 25.1345487,189.882279 Z" id="Path" fill="#E5E5E5"></path>
                            <path d="M30.8770833,189.882022 L115.472309,110.608428 C116.227565,111.552937 116.67623,112.705645 116.758228,113.912204 L117.019745,118.037668 L41.7199667,189.882022 L30.8770833,189.882022 Z M85.2307692,108.273347 L18.4465308,173.307436 L19.1382346,184.244713 C19.1932982,185.086391 19.4297907,185.906196 19.8314859,186.647881 L103.297083,108.276442 L85.2307692,108.273347 Z" id="Shape" fill="url(#linearGradient-1)"></path>
                            <path d="M139.049042,198.504335 L163.719813,198.504335 C166.129932,198.46828 168.113252,196.597122 168.289391,194.193178 L168.289391,194.193178 C168.369402,193.07232 167.977016,191.969077 167.207204,191.150472 C166.437392,190.331867 165.360312,189.872505 164.236656,189.883569 L139.565886,189.883569 C137.154664,189.919757 135.170922,191.792657 134.996308,194.197821 L134.996308,194.197821 C134.917203,195.318163 135.309994,196.420573 136.079703,197.238481 C136.849412,198.056388 137.925964,198.515331 139.049042,198.504335 Z" id="Path" fill="#FEFEFE"></path>
                            <path d="M26.2022795,192.03141 L139.1651,192.03141 C140.370751,192.015182 141.363214,191.078529 141.449115,189.875832 L141.449115,189.875832 C141.489359,189.315139 141.293165,188.763183 140.908062,188.35368 C140.522959,187.944177 139.984081,187.714487 139.421974,187.720254 L26.4591538,187.720254 C25.252905,187.735685 24.2595451,188.672551 24.173591,189.875832 L24.173591,189.875832 C24.133323,190.436797 24.3297226,190.989004 24.7151682,191.398558 C25.1006138,191.808113 25.6399054,192.037613 26.2022795,192.03141 Z" id="Path" fill="#F1F1F1"></path>
                        </g>
                    </g>
                </g>
            </g>
        </g>
    </g>
</svg>