<?xml version="1.0" encoding="UTF-8"?>
<svg width="188px" height="189px" viewBox="0 0 188 189" version="1.1" xmlns="http://www.w3.org/2000/svg" xmlns:xlink="http://www.w3.org/1999/xlink">
    <!-- Generator: Sketch 63.1 (92452) - https://sketch.com -->
    <title>woman</title>
    <desc>Created with Sketch.</desc>
    <defs>
        <linearGradient x1="0%" y1="50.0023641%" x2="100.00522%" y2="50.0023641%" id="linearGradient-1">
            <stop stop-color="#FFFFFF" stop-opacity="0" offset="0%"></stop>
            <stop stop-color="#FFFFFF" offset="100%"></stop>
        </linearGradient>
    </defs>
    <g id="WebDesign-1.2" stroke="none" stroke-width="1" fill="none" fill-rule="evenodd">
        <g id="1.2/Candidature" transform="translate(-1268.000000, -344.000000)">
            <g id="Candidature" transform="translate(397.000000, 309.000000)">
                <g id="candidature-informations" transform="translate(35.000000, 34.000000)">
                    <g id="next-step" transform="translate(1.000000, 1.000000)">
                        <g id="woman" transform="translate(835.000000, 0.000000)">
                            <path d="M159.231385,175.682021 L119.435415,175.682021 C114.518472,150.861508 110.032164,127.902533 109.84601,125.631456 C109.597805,122.670369 110.864892,111.187159 112.000431,101.587826 L112.074892,100.947456 L112.249877,99.4805641 L112.329303,98.8178564 L112.41121,98.1290872 L113.652236,87.5952615 L113.652236,87.5791282 C113.900441,85.1839487 115.723508,76.9621538 116.681579,72.7327385 C116.708882,72.6086359 116.736185,72.4845333 116.763487,72.3604308 C116.942195,71.5388718 117.098564,70.8414154 117.223908,70.3338359 C117.237559,70.2742667 117.25121,70.2196615 117.264862,70.1650564 L116.295621,70.0273026 C116.295621,70.0273026 117.150687,69.2615897 117.457221,69.2365219 C117.738933,69.2144308 122.197938,70.7123487 122.917733,70.9555897 L145.753846,74.1537128 C146.961364,74.6079282 150.859426,77.0527487 151.266482,79.0073641 C151.673538,80.9619795 155.0876,101.580379 154.741354,115.318533 C154.516728,124.073969 154.872903,136.279456 155.579046,146.752472 C155.983621,152.716841 156.501128,158.119026 157.086892,162.000954 C157.511323,164.866482 158.303097,169.859128 159.231385,175.682021 Z" id="Path" fill="#F2F5FA" fill-rule="nonzero"></path>
                            <rect id="Rectangle" fill="#18495E" fill-rule="nonzero" opacity="0.14" x="30.9291897" y="181.225682" width="147.603867" height="6.94477949" rx="3.47238974"></rect>
                            <path d="M84.3913333,72.6458667 C83.8701026,72.8072 83.2185641,73.0181744 82.4640205,73.2477641 L82.1686564,72.4845333 C82.4753731,72.3180045 82.7944277,72.1752805 83.1230051,72.0576205 C83.4158872,72.0303179 84.3230769,72.6061538 84.3913333,72.6458667 Z" id="Path" fill="#F2F5FA" fill-rule="nonzero"></path>
                            <path d="M18.5797436,142.568974 C19.2002564,142.180533 19.9945128,142.329456 20.7018974,142.504441 C32.0738569,145.320493 42.545484,150.975616 51.1368103,158.940585 L18.5797436,142.568974 Z" id="Path" fill="#C3D1FF" fill-rule="nonzero"></path>
                            <path d="M167.738615,175.001938 L167.723723,175.026759 L167.713795,175.041651 C167.702626,175.029241 167.691456,175.01559 167.677805,175.001938 L167.738615,175.001938 Z" id="Path" fill="#F2F5FA" fill-rule="nonzero"></path>
                            <polygon id="Path" fill="#F2F5FA" fill-rule="nonzero" points="176.741015 180.463692 176.80679 180.479826 176.741015 180.466174"></polygon>
                            <path d="M12.0755282,100.804738 C12.2529949,99.9360205 12.3373846,98.9158974 11.8620718,98.2420205 C11.386759,97.5681436 10.5118359,97.5544923 9.87643077,97.9702359 C9.24102564,98.3859795 8.79922051,99.1281128 8.37478974,99.8479077 C7.50607179,101.324728 1.48957949,110.757764 5.99698462,109.953579 C8.89353846,109.438554 11.4364,103.908544 12.0755282,100.804738 Z" id="Path" fill="#4055EC" fill-rule="nonzero"></path>
                            <path d="M27.1117949,144.507456 C27.4841026,143.838544 27.8092513,143.018226 27.5883487,142.334421 C27.3674462,141.650615 26.6476513,141.422267 26.0196923,141.604697 C25.3917333,141.787128 24.8345128,142.287262 24.2996308,142.773744 C23.2013231,143.766564 15.8259077,150.037467 19.7574769,150.522708 C22.2717949,150.832964 25.7851385,146.910082 27.1117949,144.507456 Z" id="Path" fill="#4055EC" fill-rule="nonzero"></path>
                            <path d="M33.3342974,132.360297 C33.7463179,131.775774 34.1409641,131.041087 34.0069333,130.385826 C33.8729026,129.730564 33.2263282,129.436441 32.6219487,129.540687 C32.0175692,129.644933 31.4454564,130.05199 30.8956821,130.449118 C29.7675897,131.263231 22.2333231,136.326615 25.8459487,137.192851 C28.1641846,137.748831 31.8512718,134.461354 33.3342974,132.360297 Z" id="Path" fill="#4055EC" fill-rule="nonzero"></path>
                            <path d="M25.6933026,114.024144 C26.1326256,112.760779 26.2207385,111.07919 25.0901641,110.364359 C24.3852615,109.920072 23.4346359,110.052862 22.7173231,110.476051 C22.0000103,110.899241 21.4638872,111.564431 20.9451385,112.213487 C19.0401641,114.604944 17.1054051,117.046041 16.0070974,119.899159 C14.6308,123.477036 19.9188103,120.767877 21.066759,119.98479 C23.1765026,118.5452 24.8531282,116.446626 25.6933026,114.024144 Z" id="Path" fill="#4055EC" fill-rule="nonzero"></path>
                            <path d="M18.7410769,136.911138 C18.1093949,137.644585 17.4752308,138.391682 17.0532821,139.269087 C16.6313333,140.146492 16.4327692,141.170338 16.7281333,142.104831 C16.7592106,142.231677 16.822471,142.348367 16.9118051,142.443631 C17.1041641,142.623579 17.4082154,142.590072 17.6564205,142.526779 C19.3677949,142.097385 20.7912513,140.836503 21.6785846,139.306318 C22.5659179,137.776133 22.9580821,135.997744 23.0958359,134.218113 C23.3390769,131.065908 19.2573436,136.311723 18.7410769,136.911138 Z" id="Path" fill="#4055EC" fill-rule="nonzero"></path>
                            <path d="M13.3661949,130.228215 C12.6290256,131.204903 11.8868923,132.197723 11.3805538,133.245149 C10.8742154,134.292574 10.6359385,135.416944 10.9375077,136.273251 C10.9668138,136.389038 11.0380018,136.489851 11.1373128,136.556205 C11.3520103,136.672862 11.6945333,136.531385 11.9824513,136.376256 C13.9420308,135.32759 15.5938359,133.521897 16.6425026,131.640503 C17.6911692,129.759108 18.1850974,127.785877 18.3873846,125.91441 C18.7497641,122.587221 13.9693333,129.427754 13.3661949,130.228215 Z" id="Path" fill="#4055EC" fill-rule="nonzero"></path>
                            <path d="M10.1506974,114.407621 C10.4029519,111.961396 11.624484,109.718122 13.5424205,108.178913 C14.1976821,107.658923 14.9621538,107.217118 15.7973641,107.168718 C16.6325744,107.120318 17.5348,107.553436 17.823959,108.340246 C18.2148821,109.417456 17.3560923,110.52321 16.5035077,111.288923 C15.2404509,112.424361 13.8489051,113.408148 12.357241,114.220226 C11.9104718,114.468431 11.4239897,114.698021 10.9176513,114.649621 C10.4113128,114.601221 9.90869744,114.15321 9.99060513,113.6568" id="Path" fill="#4055EC" fill-rule="nonzero"></path>
                            <path d="M21.5582051,129.532 C21.8099187,127.085608 23.0315574,124.842138 24.9499282,123.303292 C25.6051897,122.782062 26.3696615,122.341497 27.2048718,122.291856 C28.0400821,122.242215 28.9423077,122.677815 29.2314667,123.464626 C29.6223897,124.541836 28.7636,125.646349 27.9110154,126.413303 C26.6479585,127.548741 25.2564128,128.532527 23.7647487,129.344605 C23.3179795,129.59281 22.8314974,129.8224 22.3239179,129.774 C21.8163385,129.7256 21.3162051,129.27759 21.3981128,128.781179" id="Path" fill="#4055EC" fill-rule="nonzero"></path>
                            <path d="M141.588964,84.8923077 C140.389725,90.4779762 137.885789,95.700605 134.281805,100.133344 C130.277015,105.062697 125.38241,108.486687 120.209815,109.970954 C114.924287,111.489969 109.466256,111.002246 104.098821,110.30479 C98.5750154,109.584995 93.0177026,108.636851 87.7520308,106.127497 C82.486359,103.618144 76.7652308,100.573908 73.3213846,94.3278256 C69.8775385,88.0817436 68.1723692,79.6042974 69.6094769,71.9099385 C70.7698359,65.7048103 74.5289026,59.3246974 75.6148,53.0860615 C76.3457641,48.8901538 76.1347897,44.3653744 75.0191077,40.3469333 C74.3402667,37.8971487 73.341241,35.6521333 72.661159,33.2023487 C70.821959,26.5566564 71.8557333,19.0087385 75.2176718,13.0083795 C78.1514564,7.77249231 82.8189538,4.56071795 88.103241,2.69917949 C91.391959,1.54130256 94.8569026,0.874871795 98.3677641,0.573302564 C101.935713,0.264287179 105.550821,0.325097436 109.070369,0.630389744 C134.014985,2.75254359 124.688677,35.0911897 130.31921,50.1684103 C130.377538,50.3247795 130.443313,50.4823897 130.5004,50.6362769 C132.996103,56.9183487 137.5184,60.6538359 140.213908,66.8130462 C142.533385,72.1097436 142.85481,78.9142872 141.588964,84.8923077 Z" id="Path" fill="#444444" fill-rule="nonzero"></path>
                            <path d="M82.2666974,47.8576205 L83.0609538,54.1012205 C83.2533128,55.6103077 82.2629744,57.9484 81.9899487,59.4301846 C81.4252821,62.5128923 80.5565641,65.7259077 80.4473538,68.9327179 C80.3902667,70.6354051 80.5404308,72.3629128 81.0902051,73.9836923 C81.5456615,75.3277231 82.7755179,76.5824 82.0395897,78.0542564 C80.6856308,80.7634154 130.502882,82.0255385 129.832728,76.3528103 C129.790533,76.0040821 129.750821,75.6516308 129.686287,75.3066256 C129.668913,76.4235487 129.474072,76.7449744 128.758,75.7695282 C127.107436,73.5145846 126.896462,70.4678667 125.968174,67.8939795 C124.41441,63.5752103 121.702769,60.0196718 119.578133,56.0024718 C117.608626,52.2793949 116.068513,48.1343692 115.6416,43.9223282 L115.6416,43.9223282" id="Path" fill="#000005" fill-rule="nonzero" opacity="0.33"></path>
                            <path d="M151.843559,170.070103 C151.967662,171.618903 152.207179,173.800626 152.516195,176.363344 L65.2001128,176.363344 C64.0831897,166.033046 56.2932718,133.711774 55.6578667,125.944195 C55.0038462,117.968123 51.6952718,89.6355077 52.5056615,87.4947385 C53.3160513,85.3539692 54.9405538,82.1099282 56.1319385,81.5961436 C56.9150256,81.2598256 69.5089538,77.3034359 78.0298359,74.6352308 L82.4640205,73.2477641 L87.1799179,85.4098154 C87.1799179,85.4098154 87.5087897,84.5113128 86.9863179,81.9200513 C85.6211897,78.3372103 84.131959,74.4875487 83.4580821,72.9387487 L84.3913333,72.6433846 L84.3913333,72.6433846 L85.6882051,72.2375692 L85.7862462,72.2077846 L100.379467,73.8211179 L114.858513,69.8299795 C114.858513,69.8299795 144.047436,73.9774872 145.307077,74.2889846 C146.566718,74.6004821 148.695077,77.5379897 149.843026,79.5174256 C150.990974,81.4968615 152.34121,109.99081 152.995231,117.969364 C153.649251,125.947918 151.076605,160.727662 151.843559,170.070103 Z" id="Path" fill="#FFFFFF"></path>
                            <path d="M119.692308,70.5162667 C119.545876,71.2553593 119.202902,71.9413069 118.699487,72.5019077 C108.771282,83.8808718 98.6494769,86.0290872 87.3536615,79.0172923 C86.4973538,78.4886154 85.634841,77.9003692 84.7648821,77.2674462 C84.0028923,76.709812 83.2346974,76.1116376 82.4602974,75.4729231 C81.8683166,75.0007416 81.4150599,74.3772455 81.1485333,73.6684718 L83.1850564,73.0305846 L85.8011385,72.2152308 L85.9910154,72.2350872 L89.4423077,72.6173231 L100.394359,73.824841 L113.765169,70.1402359 L114.868441,69.8361846 L114.868441,69.8361846 L117.570154,70.2196615 C118.186944,70.3028103 118.900533,70.4058154 119.692308,70.5162667 Z" id="Path" fill="#FFFFFF"></path>
                            <path d="M117.318226,70.1774667 C115.788041,69.9602872 114.860995,69.8287385 114.856031,69.8312205 C114.96373,69.8626698 115.075197,69.879369 115.187385,69.8808615 C114.441066,70.9536004 113.576424,71.9389669 112.609774,72.8183692 L112.690441,72.8320205 C112.690441,72.8320205 115.923313,73.4041333 116.804441,72.2115077 C117.146964,71.7461231 117.392687,70.9704821 117.562708,70.2134564 L117.318226,70.1774667 Z" id="Path" fill="#0600A0" fill-rule="nonzero" opacity="0.14"></path>
                            <path d="M159.340595,176.363344 L119.568205,176.363344 C119.523528,176.136236 119.47761,175.909128 119.434174,175.682021 C114.517231,150.861508 110.030923,127.902533 109.844769,125.631456 C109.596564,122.670369 110.863651,111.187159 111.99919,101.587826 L112.073651,100.947456 L112.248636,99.4805641 L112.328062,98.8178564 L112.409969,98.1290872 C113.041651,92.8956821 113.559159,88.7407282 113.650995,87.7268103 C113.650995,87.6858564 113.658441,87.6424205 113.662164,87.5952615 L113.662164,87.5791282 L113.680779,87.4289641 C113.979867,84.908441 115.682554,77.1867795 116.636903,72.9797026 C116.654277,72.8965538 116.672892,72.8146462 116.691508,72.7314974 C116.71881,72.6073949 116.746113,72.4832923 116.773415,72.3591897 L116.806923,72.2028205 L116.806923,72.2028205 C116.805511,72.1946073 116.805511,72.1862132 116.806923,72.178 C116.983149,71.3986359 117.119662,70.8041846 117.194123,70.4678667 C117.206533,70.4157436 117.217703,70.3710667 117.22639,70.3325949 C117.240041,70.2730256 117.253692,70.2184205 117.267344,70.1638154 L122.916492,70.9543487 L130.753569,72.0501744 L132.751621,72.3294051 L133.115241,72.3802872 C134.58627,72.5862974 136.057299,72.793135 137.528328,73.0008 L142.221887,73.6573026 L142.230574,73.6573026 L144.784605,74.015959 L145.325692,74.0904205 L145.745159,74.1499897 C146.952677,74.6042051 150.850738,77.0490256 151.257795,79.003641 C151.314882,79.2828718 151.435262,79.9368923 151.594113,80.8974462 C152.55839,86.6868308 155.029272,103.52879 154.726462,115.31481 C154.501836,124.070246 154.85801,136.275733 155.564154,146.748749 C155.5716,146.862923 155.580287,146.975856 155.587733,147.090031 C155.989826,152.922851 156.497405,158.189764 157.076964,161.997231 C157.511323,164.862759 158.303097,169.855405 159.231385,175.678297 C159.268615,175.907887 159.304605,176.133754 159.340595,176.363344 Z" id="Path" fill="#4CB2DE"></path>
                            <path d="M117.184195,71.6220205 C117.184195,71.6220205 118.124892,70.8575487 118.462451,70.8312033 C118.80001,70.8054256 124.568297,72.5825744 124.568297,72.5825744 C124.568297,72.5825744 132.077744,84.0099385 132.216738,85.5463282 C132.267621,86.1196821 130.896287,88.1921949 127.448718,91.2227795 C121.645682,96.3221538 112.454646,103.177579 112.454646,103.177579 L114.29881,89.0187179 C114.29881,89.0187179 117.314503,75.177559 118.251477,71.7610154 L117.184195,71.6220205 Z" id="Path" fill="#606060" opacity="0.13"></path>
                            <path d="M130.801969,84.5659179 C130.926072,86.1035487 112.000431,101.587826 112.000431,101.587826 L112.074892,100.947456 L112.249877,99.4805641 L112.329303,98.8178564 L112.41121,98.1290872 L113.652236,87.5952615 L113.652236,87.5791282 L113.670851,87.4289641 C113.670851,87.4289641 115.491436,78.2317231 116.626974,72.9797026 C116.644349,72.8965538 116.662964,72.8146462 116.681579,72.7314974 C116.708882,72.6073949 116.736185,72.4832923 116.763487,72.3591897 L116.796995,72.2028205 L116.796995,72.2028205 C116.914892,72.225159 121.061159,73.0218974 124.34119,73.1062872 C126.551456,76.6394872 130.708892,83.4378256 130.801969,84.5659179 Z" id="Path" fill="#368DB3"></path>
                            <path d="M56.4707385,81.568841 C56.4707385,81.568841 51.5240103,84.1675487 48.2228821,89.8613744 C46.3613436,93.0805949 26.8226359,152.513313 25.5766462,156.380349 C24.3306564,160.247385 25.8248513,169.251026 31.0619795,174.078615 C31.6303692,174.601087 32.4928821,175.384174 33.5787795,176.365826 L55.2222667,176.365826 C49.4887282,170.219026 44.301241,164.636892 43.7750462,164.012656 C42.558841,162.565621 41.8266359,161.092523 43.1160615,158.094205 C44.4054872,155.095887 62.6684205,123.448492 62.6684205,123.448492 C62.6684205,123.448492 68.7233846,90.1679077 56.4707385,81.568841 Z" id="Path" fill="#4CB2DE"></path>
                            <path d="M83.4618051,72.9437128 C83.4618051,72.9437128 89.1705231,86.7848718 89.8977641,89.6739795 C90.6250051,92.5630872 99.4052615,121.4008 99.8197641,126.451774 C100.004677,128.698031 99.3357641,151.470851 98.5390256,176.363344 L59.1985128,176.363344 C59.1811385,173.765877 59.1612821,171.584154 59.1401846,170.034113 C58.9925026,159.212369 56.4409538,137.089846 53.8546564,123.592451 C51.268359,110.095056 51.2820103,89.1999077 51.365159,87.2030974 C51.4483077,85.2062872 54.8958769,82.1583282 56.014041,81.5142359 L83.4618051,72.9437128 Z" id="Path" fill="#4CB2DE"></path>
                            <path d="M89.5614462,88.7047385 C89.407559,89.3997128 86.8076103,82.7130667 84.7524718,77.2624821 C84.1555385,75.6727282 83.6045231,74.1897026 83.1726462,73.0256205 L85.7887282,72.2102667 L85.9786051,72.2301231 C86.6465618,72.9132545 87.3705399,73.5392631 88.1429538,74.1015897 C87.6614359,74.8139385 87.3189128,75.6119179 87.2618256,76.4595385 C87.2127538,77.3094894 87.2393336,78.1621201 87.3412513,79.0073641 C87.8252513,83.2789744 89.7835897,87.7466667 89.5614462,88.7047385 Z" id="Path" fill="#0600A0" fill-rule="nonzero" opacity="0.14"></path>
                            <path d="M83.260759,72.6483487 C83.260759,72.6483487 82.292759,72.0278359 81.9862256,72.0576205 C81.6796923,72.0874051 76.7912923,74.6885949 76.7912923,74.6885949 C76.7912923,74.6885949 71.1967487,87.809959 71.3233333,89.3475897 C71.4499179,90.8852205 92.6441538,103.080779 92.6441538,103.080779 L88.6828,89.3848205 C88.6828,89.3848205 83.7186974,76.1753436 82.3275077,72.9437128 L83.260759,72.6483487 Z" id="Path" fill="#606060" opacity="0.13"></path>
                            <path d="M89.8183385,89.3835795 C89.8183385,89.3835795 88.4767897,85.8106667 86.9912821,81.9250154 C85.6261538,78.3421744 84.1369231,74.4925128 83.4630462,72.9437128 L84.3962974,72.6483487 L84.3962974,72.6483487 L84.3962974,72.6483487 C84.3292821,72.6061538 83.4208513,72.0278359 83.1279692,72.0601026 C82.7993918,72.1777625 82.4803372,72.3204866 82.1736205,72.4870154 C80.842,73.146 78.5510667,74.3634462 78.0348,74.6377128 C77.9665436,74.6712205 77.9305538,74.6923179 77.9305538,74.6923179 C77.9305538,74.6923179 72.3360103,87.812441 72.470041,89.3500718 C72.6040718,90.8877026 93.7896205,103.083262 93.7896205,103.083262 L89.8183385,89.3835795 Z" id="Path" fill="#368DB3"></path>
                            <path d="M115.187385,69.8758974 C114.444539,70.9416743 113.585888,71.9218599 112.627149,72.7985128 C112.200236,73.1881949 111.758431,73.5567795 111.296769,73.8993026 C104.623774,78.9056 94.8358051,78.9800615 88.1429538,74.0966256 C88.5147886,73.5535696 88.9464791,73.0540241 89.4298974,72.6073949 C90.2849698,71.8110938 91.2343971,71.1225715 92.2569538,70.5572205 L92.166359,70.5075795 C92.9580734,69.7844022 93.3873403,68.7467039 93.3378872,67.675559 C93.3031385,67.1332308 93.2137846,65.7544513 93.1008513,64.0430769 C93.0350769,63.0279179 92.9606154,61.8936205 92.8861538,60.7469128 C92.6267795,56.7892821 92.3562359,52.6703179 92.3562359,52.6703179 L91.6984923,46.3410872 C91.6984923,46.3410872 95.8124923,46.7431795 100.077897,47.4666974 C104.191897,45.8843897 108.199169,44.6495692 108.199169,44.6495692 L108.374154,51.0346462 L108.776246,57.1578667 C109.014523,60.8313026 109.287549,64.9899795 109.357046,66.0398872 C109.50721,68.3258564 111.773323,69.1610667 113.686985,69.5470256 C113.762687,69.5606769 114.4316,69.7381436 114.856031,69.8312205 C114.963961,69.8609914 115.075424,69.8760201 115.187385,69.8758974 Z" id="Path" fill="#FFCAE1"></path>
                            <path d="M92.2569538,70.5621846 C91.2343971,71.1275357 90.2849698,71.816058 89.4298974,72.612359 C88.9464791,73.0589882 88.5147886,73.5585337 88.1429538,74.1015897 C87.3705399,73.5392631 86.6465618,72.9132545 85.9786051,72.2301231 C85.9513026,72.2053026 85.924,72.178 85.8991795,72.1506974 C86.0108718,72.0402462 86.3831795,72.0328 86.5258974,72.0054974 C86.9888,71.9149026 87.4566667,71.837959 87.9220513,71.7572923 C89.1320513,71.550041 90.4400923,71.5686564 91.5433641,70.9605538 C91.7676176,70.8364625 91.9759791,70.6856088 92.1638769,70.5113026 L92.2569538,70.5621846 Z" id="Path" fill="#FDB2D0" fill-rule="nonzero"></path>
                            <path d="M77.7816308,39.9113333 C77.6525641,39.9402906 77.5259795,39.9737983 77.4018769,40.0118564 L77.4018769,40.0118564 C75.0435792,40.7364466 73.5021084,42.9983745 73.6902076,45.4582968 C73.8783067,47.9182192 75.7457644,49.9194817 78.1868128,50.2770876 C80.6278612,50.6346934 82.9908844,49.2531828 83.876678,46.9505823 C84.7624715,44.6479819 83.9345809,42.03895 81.8832205,40.668359 C82.1587282,42.2072308 82.0867487,44.1432308 80.1246872,44.5155385 L79.9062667,41.4812308 C79.8144308,40.2613026 78.614359,39.8008821 77.7816308,39.9113333 Z" id="Path" fill="#FDB2D0"></path>
                            <path d="M114.852308,69.8312205 L113.749036,70.1352718 C113.293579,71.0039897 112.838123,71.8727077 112.366533,72.7252923 C111.97561,73.4339179 107.870297,70.5150256 107.457036,70.243241 C105.192164,68.7180205 103.330626,66.9197744 100.376985,67.0649744 C95.9092923,67.2846359 94.7576205,65.061959 93.0971282,64.0542462 C91.0990769,62.8417641 90.6634769,61.2594564 90.6634769,61.2594564 L92.8824308,60.7630462 L108.767559,57.1640718 C109.005836,60.8375077 109.278862,64.9961846 109.348359,66.0460923 C109.498523,68.3320615 111.764636,69.1672718 113.678297,69.5532308 C113.762687,69.5606769 114.436564,69.7381436 114.852308,69.8312205 Z" id="Path" fill="#FDB2D0" fill-rule="nonzero"></path>
                            <path d="M115.696205,36.4525949 C115.827754,36.4525949 115.958062,36.4687282 116.087128,36.4836205 L116.087128,36.4836205 C118.536818,36.7702409 120.460993,38.7159033 120.720392,41.1686248 C120.979791,43.6213464 119.505178,45.9264637 117.169637,46.7191689 C114.834097,47.511874 112.261015,46.5805837 110.973856,44.4766938 C109.686697,42.3728039 110.02902,39.6578702 111.798144,37.9393436 C111.80559,39.5030359 112.228779,41.3993231 114.22559,41.4142154 L113.891754,38.3910769 C113.760205,37.1637026 114.852308,36.4923077 115.696205,36.4525949 Z" id="Path" fill="#FDB2D0"></path>
                            <path d="M94.4026872,12.5678154 C85.4040103,13.3273231 76.9340103,19.8724923 78.0000513,31.5679179 L79.4892821,47.9271179 C80.3915077,57.8180923 89.2251282,65.1773744 99.1161026,64.2701846 C109.007077,63.3629949 116.366359,54.5368205 115.46041,44.6446051 L113.971179,28.2854051 C112.927477,16.8344615 103.401364,11.8083077 94.4026872,12.5678154 Z" id="Path" fill="#FFCAE1"></path>
                            <path d="M159.340595,176.363344 L155.401579,176.363344 C154.859251,171.956462 152.584451,164.697703 146.519559,152.75159 C131.428687,123.017856 138.977846,86.2909436 139.098226,85.7126256 C138.289077,90.5278051 138.5348,95.7115692 138.833887,99.8727282 C139.227292,105.351856 140.366554,110.785067 141.751538,116.197179 C142.547036,119.299744 148.599518,139.022123 155.569118,146.752472 C155.973692,152.716841 156.4912,158.119026 157.076964,162.000954 C157.526215,164.976933 158.365149,170.24881 159.340595,176.363344 Z" id="Path" fill="#368DB3"></path>
                            <path d="M122.995918,29.1379897 C122.403949,32.391959 120.811713,35.5590564 119.396944,38.4258256 C117.573877,38.3811487 116.967015,39.7437949 116.939713,40.9078769 L116.720051,50.3731795 C111.880051,50.2254974 110.857446,40.7465436 111.46679,32.7642667 L113.139692,35.1408308 L115.636636,23.3349538 L92.7062051,17.8856103 L81.1261949,17.8856103 L75.6780923,24.4704923 L79.3105744,36.508441 C79.3105744,36.508441 79.7685128,35.9524615 80.4473538,35.1842667 C80.4134325,35.5979419 80.3811658,36.0116171 80.3505538,36.4252923 C80.1135179,39.6618872 79.1988821,43.0523692 79.1988821,46.285241 C79.1281436,37.3982564 75.3665949,29.6952103 73.5137436,21.2264513 C72.8150462,18.0295692 72.4985846,14.629159 73.5757949,11.5365231 C76.1931179,4.00349744 86.4824615,0.093025641 93.4322051,3.91910769 C96.5881333,5.65654359 100.039426,6.81442051 103.65081,7.0316 C104.339579,7.0750359 105.02959,7.08124103 105.7196,7.08124103 C106.902297,7.95988718 108.1396,8.79633846 109.425303,9.56329231 C116.202544,13.6264103 121.077292,20.2361128 122.734062,27.9652205 C122.823415,28.3573846 122.909046,28.7458256 122.995918,29.1379897 Z" id="Path" fill="#444444"></path>
                            <path d="M176.95199,159.523867 C175.710964,161.360585 173.995867,162.816308 172.066072,164.051128 C169.358154,165.788564 166.213395,167.081713 163.289538,168.400923 C163.246103,168.422021 163.202667,168.439395 163.159231,168.460492 C161.875183,169.039638 160.572933,169.588998 159.252482,170.108574 C156.674872,171.126215 154.040174,172.029682 151.369487,172.838831 C150.726636,173.034085 150.082544,173.223962 149.43721,173.408462 C147.439159,173.980161 145.429111,174.507597 143.407067,174.990769 C142.725744,175.154585 134.67521,178.056103 134.486574,177.949374 C129.614308,175.170718 131.684338,172.295262 127.822267,169.727579 C127.282421,169.3652 126.705344,168.982964 126.084831,168.558533 C126.475754,168.824113 132.984933,164.783333 133.729549,164.373795 C136.510687,162.846092 139.283138,161.310944 142.029528,159.738564 C147.133867,156.818431 152.058256,153.689805 157.012431,150.579795 C157.663969,150.167774 158.337846,149.734656 158.708913,149.110421 C158.788908,148.969935 158.845494,148.81736 158.876451,148.658687 C159.303364,146.494338 155.829733,142.097385 154.953569,140.423241 C153.404769,137.467118 151.754205,134.550708 149.964646,131.698831 C149.592338,131.108103 148.877508,129.944021 148.423292,129.340882 L148.423292,129.334677 C148.416708,129.327434 148.410885,129.319532 148.405918,129.311097 C148.402357,129.305309 148.397724,129.300255 148.392267,129.296205 C148.392267,129.296205 148.384821,129.286277 148.383579,129.282554 C148.340144,129.225467 148.266923,129.129908 148.149026,128.971056 C147.663785,128.312072 146.106297,125.951641 145.526738,125.136287 C145.510605,125.113949 145.494472,125.092851 145.479579,125.070513 C142.332338,120.654944 140.413713,115.649887 139.868903,110.4624 C139.449203,106.696593 139.42882,102.896965 139.808092,99.1268718 C140.407508,92.9527692 142.352195,83.2305744 149.254779,79.0421128 C149.720164,78.7579179 150.716708,79.2965231 151.072882,79.5670667 C151.789826,80.1067263 152.477502,80.6842083 153.132985,81.2970564 C153.891251,81.9920308 154.573815,82.5045744 155.306021,83.2951077 C155.999266,84.0334956 156.604009,84.8502324 157.10799,85.728759 C157.936995,87.1025744 158.169067,87.4661949 159.101077,89.2383795 C164.546619,99.5788427 169.033072,110.396596 172.504154,121.555928 C174.23953,127.097944 175.686848,132.726081 176.840297,138.417744 C176.987979,139.15119 177.154277,139.884636 177.329262,140.618082 C177.701569,142.178051 178.103662,143.738021 178.446185,145.306677 C178.825938,147.0528 179.125026,148.80761 179.204451,150.583518 C179.334759,153.674913 178.757682,156.871795 176.95199,159.523867 Z" id="Path" fill="#FFCAE1" fill-rule="nonzero"></path>
                            <path d="M179.193282,150.581036 C179.113856,148.805128 178.820974,147.050318 178.435015,145.304195 C178.094974,143.735538 177.6904,142.175569 177.318092,140.6156 L159.458492,150.026297 C163.418605,150.882605 164.861918,149.100492 168.819549,149.965487 C171.499931,150.552919 173.302256,153.071779 172.993118,155.798308 C172.527733,159.816749 171.157641,160.839354 168.67559,162.934205 L149.439692,173.407221 C150.085026,173.223549 150.729118,173.033672 151.371969,172.83759 C154.043897,172.024718 156.677354,171.121251 159.254964,170.107333 C160.574588,169.589412 161.876838,169.040051 163.161713,168.459251 C163.205149,168.438154 163.248585,168.420779 163.292021,168.399682 C163.762369,168.187467 164.238923,167.975251 164.717959,167.763036 L165.302482,167.502421 L165.573026,167.378318 C165.920513,167.223603 166.268414,167.066821 166.616728,166.907969 L166.656441,166.889354 C167.011374,166.723884 167.36548,166.558414 167.718759,166.392944 L167.803149,166.353231 C168.148154,166.187761 168.491504,166.022291 168.8332,165.856821 L168.896492,165.824554 C169.616287,165.464656 170.323672,165.088626 171.006236,164.690256 L171.054636,164.661713 C171.385576,164.468113 171.713207,164.268721 172.037528,164.063538 L172.06359,164.047405 L172.06359,164.047405 C173.993385,162.813826 175.702277,161.360585 176.949508,159.521385 C178.757682,156.871795 179.334759,153.674913 179.193282,150.581036 Z" id="Path" fill="#FDB2D0"></path>
                            <path d="M167.032472,95.7698974 C165.695887,94.3377538 154.393867,80.3650462 148.397231,75.6342564 C147.046995,74.5694564 145.966062,73.9725231 145.330656,74.0941436 C145.225535,74.1111176 145.126219,74.1537425 145.041497,74.2182462 C144.876027,74.3473128 144.715521,74.4805162 144.559979,74.6178564 C141.406533,77.3481128 139.82919,81.3814462 139.099467,85.7039385 L141.840892,90.9993949 C141.138472,89.7583692 139.090779,87.0144615 139.090779,85.7746769 C138.639046,94.585959 137.973856,103.645446 139.604564,112.377303 C141.124821,120.533323 144.408574,128.222718 148.188738,135.563385 C149.057456,137.266072 152.168708,143.381846 155.592697,147.092513 C157.889836,149.584492 160.328451,150.996779 162.332708,149.276718 C162.676506,148.982095 163.036555,148.706983 163.411159,148.452677 C167.734892,145.474215 174.58039,144.25801 179.786492,141.804503 C180.544784,141.452351 181.281214,141.054919 181.991795,140.614359 C183.927795,139.404359 185.466667,137.901477 186.3056,135.881087 C193.036923,119.612482 176.979292,106.436513 167.032472,95.7698974 Z" id="Path" fill="#4CB2DE"></path>
                            <path d="M153.104441,183.181538 L154.570092,182.254492 C153.891251,183.134379 153.104441,183.181538 153.104441,183.181538 Z" id="Path" fill="#FDA118"></path>
                            <path d="M92.7111692,17.8880923 L81.131159,17.8880923 L75.6830564,24.4729744 L79.3155385,36.5109231 C79.3155385,36.5109231 79.7734769,35.9549436 80.4523179,35.1867487 C80.5255385,34.3180308 80.6,33.4493128 80.6595692,32.5805949 C80.7191385,31.7118769 80.7662974,30.8208205 80.7836718,29.9396923 C80.8228261,29.1622653 80.7854152,28.3828719 80.6719795,27.6127692 C80.6335077,27.3931077 80.5863487,27.1722051 80.5478769,26.9562667 C80.4572821,26.4511692 80.4237744,25.956 80.695559,25.4670359 C81.0082974,24.9098154 81.5791692,24.5375077 82.1847897,24.3612821 C83.3588,24.018759 84.6395385,24.2570359 85.8023795,24.5201333 C86.8733846,24.7608923 88.0771795,24.892441 89.0005026,24.3041949 C89.8928,23.7296 90.3308821,22.5828923 91.2827487,22.1088205 C92.2346154,21.6347487 93.3924923,21.9847179 94.4002051,22.3570256 C97.7236718,23.5508923 101.054585,25.1406462 104.607641,25.4347692 C107.262985,25.6721748 109.933032,25.6974892 112.5924,25.5104718 C112.084821,27.4626051 111.680246,30.0327692 111.475477,32.7828821 L113.148379,35.1594462 L115.645323,23.3535692 L92.7111692,17.8880923 Z" id="Path" fill="#444444" fill-rule="nonzero"></path>
                            <path d="M112.5924,25.4943385 C112.084821,27.4464718 111.680246,30.0166359 111.475477,32.7667487 L108.834574,29.0126462 C108.834574,29.0126462 97.7100205,25.6072718 93.8491897,26.9699179 C89.988359,28.3325641 87.2655487,31.5108308 85.9066256,30.8295077 C84.9485538,30.3504718 82.0768205,33.3587179 80.4597641,35.1817846 C80.5329846,34.3130667 80.6074462,33.4443487 80.6670154,32.5756308 C80.7265846,31.7069128 80.7737436,30.8158564 80.7911179,29.9347282 C80.8302722,29.1573012 80.7928613,28.3779078 80.6794256,27.6078051 C80.6409538,27.3881436 80.5937949,27.167241 80.5553231,26.9513026 C80.4647282,26.4462051 80.4312205,25.9510359 80.7030051,25.4620718 C81.0157436,24.9048513 81.5866154,24.5325436 82.1922359,24.3563179 C83.3662462,24.0137949 84.6469846,24.2520718 85.8098256,24.5151692 C86.8808308,24.7559282 88.0846256,24.8874769 89.0079487,24.2992308 C89.9002462,23.7246359 90.3383282,22.5779282 91.2901949,22.1038564 C92.2420615,21.6297846 93.3999385,21.9797538 94.4076513,22.3520615 C97.7311179,23.5459282 101.062031,25.1356821 104.615087,25.4298051 C107.26826,25.6630948 109.9358,25.6846742 112.5924,25.4943385 Z" id="Path" fill="#FDB2D0" fill-rule="nonzero"></path>
                            <path d="M115.187385,69.8758974 C114.444539,70.9416743 113.585888,71.9218599 112.627149,72.7985128 C112.60481,72.8183692 112.512974,72.7985128 112.378944,72.7451487 L113.752759,70.1303077 L114.856031,69.8262564 C114.96373,69.8577057 115.075197,69.8744048 115.187385,69.8758974 Z" id="Path" fill="#FDB2D0" fill-rule="nonzero"></path>
                            <path d="M124.351118,73.1137333 C121.071087,73.0293436 116.924821,72.2326051 116.806923,72.2102667 L116.806923,72.2102667 L116.814369,72.1854462 C116.96081,71.5115692 117.091118,70.9295282 117.201569,70.4753128 C117.211497,70.4281538 117.222667,70.3822359 117.233836,70.340041 C117.245005,70.2978462 117.261138,70.2258667 117.27479,70.1712615 L116.305549,70.0335077 C116.305549,70.0335077 117.160615,69.2677949 117.467149,69.2429744 C117.748862,69.2206359 122.207867,70.7185538 122.927662,70.9617949 L123.024462,70.9928205 C123.024462,70.9928205 123.556862,71.840441 124.351118,73.1137333 Z" id="Path" fill="#445C51" fill-rule="nonzero"></path>
                            <path d="M130.758533,72.0576205 C129.517508,72.0812 128.462636,72.2301231 127.904174,72.6049128 C127.253877,73.0367897 125.901159,73.1546872 124.352359,73.1137333 C123.558103,71.840441 123.019497,70.9928205 123.019497,70.9928205 L122.922697,70.9617949 L130.758533,72.0576205 Z" id="Path" fill="#FF7F00" fill-rule="nonzero"></path>
                            <path d="M145.158154,74.2331385 C145.071203,74.3023554 145.031149,74.4149749 145.054868,74.5235517 C145.078586,74.6321285 145.161952,74.7177872 145.269846,74.744441 C146.03507,74.9396614 146.739111,75.3236841 147.317538,75.8613641 C148.923724,77.381532 150.359386,79.0722837 151.599077,80.9036513 C153.38119,83.4924308 155.272513,86.9710256 156.736923,91.4523692 C160.596513,103.258246 174.673467,107.572051 177.851733,119.832144 C179.730646,127.082215 175.127682,138.904226 177.851733,142.763815 C178.628615,142.400195 181.305508,141.049959 181.995518,140.618082 C183.931518,139.408082 185.47039,137.9052 186.309323,135.88481 C193.040646,119.614964 176.979292,106.438995 167.032472,95.7723795 C165.695887,94.3402359 154.393867,80.3675282 148.397231,75.6367385 C147.046995,74.5719385 145.966062,73.9750051 145.330656,74.0966256 L145.158154,74.2331385 Z" id="Path" fill="#368DB3"></path>
                            <path d="M144.885128,74.0469846 C144.590089,74.1907895 144.274355,74.2875195 143.949395,74.3336615 C142.302554,74.6141333 140.643303,74.4788615 138.992738,74.3609641 C137.342174,74.2430667 135.66679,74.0308513 134.013744,73.7789231 C132.942738,73.6138667 131.872974,73.4314359 130.80321,73.2428 C129.837067,73.0777752 128.854776,73.0277858 127.876872,73.0938769 C127.315928,73.1249026 126.759949,73.1795077 126.206451,73.1546872 C125.971897,73.146 124.446677,73.2787897 124.344913,73.1137333 C123.550656,71.840441 123.012051,70.9928205 123.012051,70.9928205 L122.915251,70.9617949 L130.752328,72.0576205 L132.750379,72.3368513 L133.114,72.3877333 C134.585029,72.5937436 136.056058,72.8005812 137.527087,73.0082462 L142.220646,73.6647487 L142.229333,73.6647487 L144.783364,74.0234051 C144.824318,74.0271282 144.857826,74.0382974 144.885128,74.0469846 Z" id="Path" fill="#749083"></path>
                            <path d="M122.995918,29.1379897 C122.909046,28.7458256 122.823415,28.3573846 122.747713,27.9739077 C121.090944,20.2472821 116.216195,13.6350974 109.438954,9.57197949 C108.153251,8.80006154 106.915949,7.95864615 105.733251,7.08992821 C107.084728,7.08992821 108.434964,7.04773333 109.781477,7.14701538 C113.369282,7.41259487 116.433374,9.20711795 118.045467,12.4710154 C118.721826,13.8361436 118.601446,15.4110051 119.117713,16.8232923 C120.309097,20.0859487 123.108851,22.5320103 123.237918,26.1756615 C123.267253,27.1690205 123.186088,28.1625626 122.995918,29.1379897 L122.995918,29.1379897 Z" id="Path" fill="#444444"></path>
                            <path d="M123.065415,29.151641 C122.215313,24.744759 121.426021,20.3130564 119.303867,16.3020615 C117.849385,13.5531897 117.097323,9.984 114.066738,8.50345641 C109.747969,6.39371282 105.928092,7.38653333 102.110697,3.86077949 C101.694954,3.47606154 99.1322359,0.645282051 98.8108103,0.758215385 C102.999272,-0.632974359 109.510933,0.261805128 113.674574,1.54006154 C129.968,6.56001026 127.2576,27.0543077 128.409272,40.3605846 C128.708359,43.8218051 129.609344,47.1005949 130.434626,50.4662564 C126.907631,43.7461026 124.502523,36.5866256 123.065415,29.151641 Z" id="Path" fill="#000005" opacity="0.33"></path>
                            <path d="M27.2023897,184.536738 L158.177754,184.536738 C160.466205,184.536738 162.449364,182.665272 162.587118,180.376821 L162.587118,180.376821 C162.663729,179.295538 162.284889,178.231452 161.542201,177.44186 C160.799513,176.652267 159.76059,176.209052 158.676646,176.219385 L27.700041,176.219385 C25.4128308,176.219385 23.4284308,178.08961 23.2919179,180.376821 L23.2919179,180.376821 C23.2145803,181.458517 23.5930955,182.523271 24.3358661,183.313423 C25.0786368,184.103574 26.1179823,184.547124 27.2023897,184.536738 L27.2023897,184.536738 Z" id="Path" fill="#D8D8D8"></path>
                            <path d="M27.2023897,184.536738 L158.177754,184.536738 C159.640459,184.51925 161.001952,183.786815 161.822646,182.575918 C161.125557,181.352842 159.821275,180.602654 158.413549,180.615097 L27.4369436,180.615097 C25.9746796,180.632991 24.6137369,181.365378 23.7932923,182.575918 C24.4901877,183.799187 25.7945936,184.549446 27.2023897,184.536738 Z" id="Path" fill="#929292"></path>
                            <path d="M24.4671692,176.444275 L129.225867,176.444275 C130.643157,176.458496 132.001542,175.877842 132.970442,174.843358 C133.939341,173.808875 134.429909,172.415422 134.322759,171.002113 L115.955579,103.146554 C115.766944,100.1532 113.163272,97.7043928 110.169918,97.7043928 L5.41370256,97.7043928 C3.99631616,97.6902009 2.63782992,98.2708178 1.66873953,99.3052534 C0.699649137,100.339689 0.208786285,101.733122 0.315569231,103.146554 L18.6827487,171.002113 C18.8689026,173.997949 21.4725744,176.444275 24.4671692,176.444275 Z" id="Path" fill="#9E9E9E"></path>
                            <path d="M24.4659282,176.444261 L126.135713,176.444261 C127.552884,176.458116 128.911039,175.877346 129.879854,174.842952 C130.84867,173.808558 131.339368,172.415328 131.232605,171.002113 L112.865426,103.146554 C112.67679,100.1532 110.073118,97.7044053 107.079764,97.7044053 L5.41246154,97.7044053 C3.99528995,97.6905509 2.63713571,98.2713206 1.66832022,99.3057146 C0.699504724,100.340109 0.208806237,101.733339 0.315569231,103.146554 L18.6827487,171.002113 C18.8689026,173.997949 21.4725744,176.444261 24.4659282,176.444261 Z" id="Path" fill="#E5E5E5"></path>
                            <path d="M30.0058667,176.44401 L111.625641,99.958359 C112.35434,100.86991 112.787321,101.982238 112.866667,103.146554 L113.114872,107.125282 L40.4627487,176.44401 L30.0058667,176.44401 Z M82.4429231,97.7046564 L18.0138359,160.450913 L18.6802667,170.999631 C18.7337656,171.811356 18.9614875,172.602034 19.3479385,173.317867 L99.8793333,97.7021744 L82.4429231,97.7046564 Z" id="Shape" fill="url(#linearGradient-1)"></path>
                            <path d="M134.374882,184.536738 L158.177754,184.536738 C160.466205,184.536738 162.449364,182.665272 162.587118,180.376821 L162.587118,180.376821 C162.663729,179.295538 162.284889,178.231452 161.542201,177.44186 C160.799513,176.652267 159.76059,176.209052 158.676646,176.219385 L134.872533,176.219385 C132.585323,176.219385 130.600923,178.08961 130.46441,180.376821 L130.46441,180.376821 C130.387456,181.458422 130.7661,182.522956 131.508788,183.313019 C132.251475,184.103082 133.290593,184.546748 134.374882,184.536738 L134.374882,184.536738 Z" id="Path" fill="#FEFEFE"></path>
                            <path d="M25.4984615,178.523969 L134.486574,178.523969 C135.64922,178.506483 136.605874,177.603694 136.690636,176.44401 L136.690636,176.44401 C136.72771,175.903823 136.537458,175.372704 136.165825,174.97892 C135.794193,174.585135 135.274966,174.364485 134.733538,174.370256 L25.7466667,174.370256 C24.5837797,174.387692 23.62674,175.290336 23.5413641,176.450215 L23.5413641,176.450215 C23.5050523,176.990212 23.6955611,177.520892 24.0670277,177.914501 C24.4384944,178.30811 24.9572684,178.52899 25.4984615,178.523969 Z" id="Path" fill="#F1F1F1"></path>
                        </g>
                    </g>
                </g>
            </g>
        </g>
    </g>
</svg>